<svg width="200" height="67" viewBox="0 0 200 67" fill="none" xmlns="http://www.w3.org/2000/svg">
<g clip-path="url(#clip0_325_318)">
<path fill-rule="evenodd" clip-rule="evenodd" d="M6.10352e-05 19.777V53.5H22.8924C23.7293 53.5 24.5463 53.1969 25.1285 52.9051C25.5012 52.7183 25.6949 52.5998 26.0198 52.3813L27.4461 50.9152C28.0904 50.0051 28.4924 48.8471 28.4924 47.5921V13.5H5.78468C4.85797 13.5 4.00614 13.7788 3.36236 14.0932C1.23651 15.1318 6.10352e-05 17.2779 6.10352e-05 19.777H6.10352e-05Z" fill="#322C2B"/>
<path fill-rule="evenodd" clip-rule="evenodd" d="M1.17219 52.3798C7.74509 52.4762 14.5476 52.3822 21.1691 52.3822C22.5802 52.3822 23.4724 52.4613 24.6491 51.8711C25.5499 51.4193 26.2337 50.772 26.7156 49.9375C27.3141 48.9009 27.3616 47.9789 27.3616 46.6076V18.6076C27.3616 17.4095 27.4539 15.7885 27.3497 14.6424C26.599 14.549 9.41229 14.6261 7.3848 14.6261C5.90355 14.6261 5.14179 14.5435 3.89291 15.1168C3.04965 15.5039 2.23594 16.3024 1.8179 17.0412C1.18987 18.1506 1.15229 18.9449 1.15229 20.3922V48.3922C1.15229 49.5065 1.0426 51.3525 1.17246 52.3798H1.17219Z" fill="#FCFCFC"/>
<path fill-rule="evenodd" clip-rule="evenodd" d="M3.62738 25.3864C2.49786 25.6859 2.84821 26.5628 3.07146 28.2646C3.14551 28.8285 3.19497 29.4071 3.28394 29.9699C3.37291 30.5325 3.59699 31.0127 3.67297 31.5169C3.72823 31.5691 3.71552 31.5501 3.77078 31.6305C3.80863 31.6857 3.8067 31.6838 3.84345 31.7537C4.64361 33.2736 4.85305 33.3375 7.12258 34.0674C9.09619 34.7024 10.0862 35.0768 12.1355 35.0466L12.7218 34.9947C12.7403 35.5506 12.4046 36.2919 12.4143 37.1308C12.4748 42.3487 18.4089 45.3029 22.3992 41.8069C25.4294 39.1522 25.0423 33.8356 21.1887 31.8794C19.327 30.9342 18.497 31.3213 16.8754 31.4039C17.0136 31.1066 20.3118 27.0486 20.7757 26.4606C20.9357 26.2578 21.2824 25.9304 21.1354 25.5955C20.7942 25.5433 20.6486 25.9146 20.4391 26.186C20.2256 26.4628 20.0449 26.7112 19.8343 26.9964C18.9297 28.222 17.2564 30.6631 16.0852 31.5595C16.4753 31.0762 16.8511 30.5446 17.2636 30.0241L20.3024 26.1103C20.5137 25.8246 20.761 25.6527 20.7776 25.2015C20.6149 25.0868 20.2167 24.828 20.3469 24.6196C20.6737 24.2394 20.6718 24.8514 21.1526 24.8733C21.1948 24.4475 20.6491 24.1706 20.2817 24.0985C19.7832 23.991 19.6448 24.377 19.3892 24.6434C19.1494 24.8932 18.8891 25.1208 18.6487 25.3789L17.5792 26.5264C17.4322 26.6739 17.3023 26.7587 17.1619 26.909C15.4229 28.7713 15.7094 28.2381 13.2277 27.3475C10.6523 26.4236 8.95915 25.8702 6.24394 25.4121C5.10697 25.2203 4.72623 25.1253 3.6271 25.3866L3.62738 25.3864Z" fill="#051629"/>
<path fill-rule="evenodd" clip-rule="evenodd" d="M3.62738 25.3864C4.7265 25.125 5.10725 25.2198 6.24422 25.4118C8.95942 25.8702 10.6526 26.4234 13.228 27.3473C15.7097 28.2376 15.4232 28.7708 17.1622 26.9088C17.3026 26.7585 17.4325 26.6737 17.5794 26.5262L18.649 25.3787C18.8897 25.1206 19.1497 24.8929 19.3895 24.6432C19.6451 24.3768 19.7835 23.9908 20.2819 24.0983C20.1709 23.9513 20.1576 24.0085 20.2894 23.7665C20.3709 23.6173 20.4386 23.5471 20.5502 23.4029C20.7481 23.1465 20.8763 22.9497 21.1078 22.7256C21.748 22.6947 21.8245 23.0774 22.3384 23.1056L22.4683 22.9738C21.9969 23.0475 21.7364 22.7381 21.3018 22.606C21.4325 22.1653 22.3912 21.1212 22.6719 20.8487L23.8766 19.6537C24.0413 19.5048 24.1465 19.4603 24.2607 19.2807C24.0496 19.1348 24.0076 18.9691 23.8388 18.7699C22.2763 16.9258 20.6215 17.3193 18.6454 17.4281C16.1526 17.5655 13.5841 17.6014 11.077 17.5702C9.12272 17.5458 7.51133 17.1789 5.93642 18.0216C4.69418 18.6861 3.7741 19.9447 3.67352 21.5605C3.5945 22.8326 3.77686 24.137 3.62738 25.3867V25.3864Z" fill="#5DAD2C"/>
<path fill-rule="evenodd" clip-rule="evenodd" d="M12.1357 35.0468C10.0864 35.0769 9.09644 34.7023 7.12283 34.0676C4.8533 33.3376 4.64386 33.2738 3.8437 31.7539C3.80695 31.684 3.80888 31.6859 3.77103 31.6306C3.71577 31.5502 3.72848 31.5693 3.67322 31.5171L3.74588 41.94C3.87381 41.9983 12.4883 41.9974 13.0815 41.906C13.0136 41.596 12.514 40.8643 12.343 40.4797C11.6022 38.8153 11.1767 36.6621 12.1357 35.0468V35.0468Z" fill="#D02B34"/>
<path fill-rule="evenodd" clip-rule="evenodd" d="M3.98184 26.7176L4.66431 30.7521C4.887 32.1087 5.23542 32.9526 6.61195 33.4723C7.74561 33.9003 9.05582 34.2385 10.2997 34.4578C12.0031 34.7582 13.0627 34.3843 13.7714 33.3637C14.1447 32.826 15.2159 30.7579 14.946 29.8815C14.7788 29.3391 14.024 29.2568 13.4194 29.0658C12.8298 28.8793 12.2468 28.6931 11.6191 28.5226C9.88583 28.0518 7.82104 27.4332 6.02481 27.0983C5.39512 26.9809 4.62728 26.7424 3.98157 26.7173L3.98184 26.7176Z" fill="#FCFCFC"/>
<path fill-rule="evenodd" clip-rule="evenodd" d="M13.6615 39.8372C13.8908 39.7399 13.7259 39.6891 14.0306 39.6728L14.1453 39.8935C13.9627 40.1024 13.9491 39.972 13.8052 40.1389C14.019 40.403 13.8961 40.2845 14.2185 40.3876C14.3967 40.9545 14.3622 40.9161 14.7692 41.2557L14.7902 41.1637C14.8488 40.8758 14.8283 40.6238 15.5091 40.7031C15.4616 41.156 15.408 40.9106 15.4669 41.4386L15.1596 41.5616C15.2994 41.7459 15.6675 41.9697 15.9426 42.0354C15.9451 41.5428 15.8111 41.1767 15.894 40.6484C15.9786 40.1102 16.2864 40.0129 16.3157 39.5924C16.1861 39.3412 15.931 39.2746 16.0128 38.8709C16.0825 38.5275 16.4046 38.4858 16.7492 38.6016C16.7055 38.948 16.5132 38.8068 16.4555 39.1199C16.3905 39.4722 16.6025 39.5296 16.9116 39.4559C16.9884 39.2708 17.0139 38.9925 17.1556 38.8417C17.3474 38.6378 17.5549 38.7204 17.7936 38.5457C17.8759 37.9489 17.6839 38.2487 17.9864 37.7016C18.0558 37.5759 18.0823 37.4812 18.1011 37.3154C18.1229 37.1239 18.1279 36.9523 18.0309 36.8086C17.5678 36.9979 18.0809 37.3985 17.3443 37.4353C16.7613 36.6141 17.6759 36.5848 18.0345 36.287C18.0505 36.0157 18.0616 35.6893 17.7491 35.7822C17.4935 35.8579 17.5565 36.174 17.5308 36.4381C17.1772 36.3663 17.021 36.2082 17.1609 35.7764C17.3822 35.583 17.4844 35.612 17.8204 35.6175C17.8381 35.1939 18.0381 35.095 17.8831 34.6911C17.675 34.1487 17.8428 34.2379 18.0417 33.8182C18.2166 33.4491 18.0644 33.1999 18.0621 32.8219C18.058 32.1781 17.688 32.1632 18.1542 32.032L18.3094 32.4478C18.7051 32.4376 18.5573 32.4749 18.7479 32.2475C18.9176 32.0452 18.9709 32.1115 19.0624 31.8977C18.1669 31.6313 16.7221 32.0314 15.9976 32.39C15.1132 32.8277 14.4912 33.4251 14.0005 34.084C13.4811 34.7817 13.0923 35.691 12.9956 36.7796C12.9144 37.6945 13.1644 39.2691 13.6621 39.8372H13.6615Z" fill="#FCFCFC"/>
<path fill-rule="evenodd" clip-rule="evenodd" d="M18.8521 30.2083C20.9196 30.3337 22.1953 30.9565 23.4712 32.2443C23.9097 32.6867 24.5085 33.3581 24.824 33.8908C24.9086 33.457 24.795 28.8618 24.7878 28.0233L24.7433 23.5925C24.7403 23.159 24.8351 22.4334 24.677 22.0991C24.4491 22.242 18.8869 29.9734 18.8523 30.2083H18.8521Z" fill="#04216D"/>
<path fill-rule="evenodd" clip-rule="evenodd" d="M13.675 47.0308C13.341 46.9344 11.5887 46.8974 11.2187 46.9999C11.0786 47.2392 11.0723 47.605 11.1662 47.9324C12.0805 48.2855 12.7226 47.466 12.645 48.7331C11.6915 49.5604 9.31225 49.3183 9.65431 46.7951C9.89 45.0575 11.5602 45.0205 12.1791 45.5059C12.477 45.7394 12.5475 46.0867 12.7315 46.4144C13.0884 46.4528 13.7063 46.3633 13.6947 46.006C13.6667 45.1429 12.6237 44.1009 11.1356 44.1916C7.5011 44.4123 7.53702 50.0339 11.2671 50.2102C12.1838 50.2536 12.8517 49.9742 13.4885 49.5731C13.8972 49.3155 13.8008 48.9472 13.7955 48.3927C13.7908 47.9025 13.8303 47.4047 13.675 47.0314V47.0308Z" fill="#051629"/>
<path fill-rule="evenodd" clip-rule="evenodd" d="M24.8948 48.2286C24.6417 48.0184 24.2225 47.9012 23.8001 47.894C23.5649 48.7547 23.1356 49.4192 22.0854 49.1291C20.6118 48.7218 20.4825 45.5872 21.9599 45.1821C22.5448 45.0219 23.2256 45.1868 23.5108 45.8035C23.5517 45.8917 23.5799 45.9754 23.6216 46.0624C23.833 46.5037 24.1899 46.4225 24.7898 46.1713C24.9312 44.9285 23.2897 43.8379 21.8922 44.0778C18.8645 44.5975 19.1831 49.5339 21.8505 50.1815C23.7957 50.6537 24.9716 49.2286 24.8942 48.2289L24.8948 48.2286Z" fill="#051629"/>
<path fill-rule="evenodd" clip-rule="evenodd" d="M18.436 47.8938C18.3097 48.3201 18.2357 48.7009 17.94 48.9153C17.099 49.5254 15.6489 49.1648 15.5616 47.2246C15.4564 44.8868 17.2037 44.8937 17.8306 45.3922C18.4727 45.9028 17.9762 46.777 19.4318 46.1661C19.5163 45.4228 18.827 44.7362 18.4365 44.4779C16.632 43.2829 13.8878 44.5517 14.4559 47.712C14.7316 49.2455 15.6614 50.3175 17.4195 50.2675C18.2771 50.2432 18.8562 49.7884 19.1812 49.2949C19.7747 48.3931 19.6639 47.9187 18.4363 47.8938H18.436Z" fill="#051629"/>
<path fill-rule="evenodd" clip-rule="evenodd" d="M3.86722 45.3882C4.40048 45.5089 5.01911 45.3865 5.58995 45.4412L5.6267 49.9958C5.92206 50.0988 6.62884 50.2417 6.75317 49.8529C6.78357 49.7581 6.78716 49.6645 6.79158 49.5656C6.8007 49.3669 6.78992 49.1464 6.78495 48.9461C6.76644 48.1957 6.68962 45.898 6.82335 45.4274C7.4594 45.1434 8.32532 45.6775 8.51155 45.1525C8.58836 44.9364 8.53697 44.5551 8.46043 44.3626C7.61053 44.2095 5.32857 44.3509 4.23912 44.3777C3.60114 44.3935 3.74426 44.9179 3.86694 45.3882H3.86722Z" fill="#051629"/>
<path fill-rule="evenodd" clip-rule="evenodd" d="M13.6372 28.801C13.8889 27.8312 13.0655 27.6588 12.3358 27.3811C10.578 26.7125 7.10294 25.6191 5.35065 25.6305C5.40121 25.8899 5.68829 26.3759 5.82837 26.5641C6.06848 26.8854 6.29366 26.9545 6.77525 27.0294C8.49384 27.2965 9.79466 27.6726 11.4304 28.1567C11.9506 28.3106 13.1918 28.8049 13.6369 28.8007L13.6372 28.801Z" fill="#FCFCFC"/>
<path fill-rule="evenodd" clip-rule="evenodd" d="M24.2604 19.2809C24.1465 19.4605 24.0412 19.5053 23.8763 19.6539L22.6716 20.8489C22.3909 21.1213 21.4321 22.1655 21.3015 22.6062C21.7361 22.7382 21.9966 23.0477 22.468 22.9739C22.7227 22.7001 22.991 22.355 23.2444 22.0375C23.6019 21.5894 25.4996 19.5169 25.6385 19.0737C25.4344 19.0494 25.0138 18.9402 24.8464 18.9399C24.5842 18.9397 24.4775 19.164 24.2604 19.2809V19.2809Z" fill="#051629"/>
<path fill-rule="evenodd" clip-rule="evenodd" d="M23.7459 42.1682C24.1148 42.189 24.5469 42.2738 24.8964 42.1561C25.0224 41.7013 24.9616 40.9514 24.8906 40.4795C24.7367 40.5353 23.805 41.916 23.7459 42.1682Z" fill="#D02B34"/>
</g>
<path d="M60.8193 25.695V28.971H56.8713V40.5H52.7553V28.971H48.8493V25.695H60.8193ZM71.7921 30.567C71.5541 30.175 71.2251 29.874 70.8051 29.664C70.3991 29.454 69.9161 29.349 69.3561 29.349C68.3201 29.349 67.5011 29.685 66.8991 30.357C66.3111 31.029 66.0171 31.932 66.0171 33.066C66.0171 34.34 66.3321 35.313 66.9621 35.985C67.6061 36.643 68.5371 36.972 69.7551 36.972C71.1971 36.972 72.2261 36.321 72.8421 35.019H68.7051V32.058H76.3911V36.048C76.0691 36.832 75.5931 37.567 74.9631 38.253C74.3471 38.939 73.5631 39.506 72.6111 39.954C71.6591 40.388 70.5741 40.605 69.3561 40.605C67.8721 40.605 66.5561 40.29 65.4081 39.66C64.2741 39.016 63.3921 38.127 62.7621 36.993C62.1461 35.845 61.8381 34.536 61.8381 33.066C61.8381 31.61 62.1461 30.315 62.7621 29.181C63.3921 28.033 64.2741 27.144 65.4081 26.514C66.5421 25.87 67.8511 25.548 69.3351 25.548C71.1971 25.548 72.7371 25.996 73.9551 26.892C75.1731 27.788 75.9291 29.013 76.2231 30.567H71.7921ZM77.7317 33.066C77.7317 31.61 78.0327 30.315 78.6347 29.181C79.2507 28.033 80.1187 27.144 81.2387 26.514C82.3587 25.87 83.6467 25.548 85.1027 25.548C86.9507 25.548 88.5047 26.045 89.7647 27.039C91.0247 28.019 91.8367 29.356 92.2007 31.05H87.7697C87.5037 30.49 87.1327 30.063 86.6567 29.769C86.1947 29.475 85.6557 29.328 85.0397 29.328C84.0877 29.328 83.3247 29.671 82.7507 30.357C82.1907 31.029 81.9107 31.932 81.9107 33.066C81.9107 34.214 82.1907 35.131 82.7507 35.817C83.3247 36.489 84.0877 36.825 85.0397 36.825C85.6557 36.825 86.1947 36.678 86.6567 36.384C87.1327 36.09 87.5037 35.663 87.7697 35.103H92.2007C91.8367 36.797 91.0247 38.141 89.7647 39.135C88.5047 40.115 86.9507 40.605 85.1027 40.605C83.6467 40.605 82.3587 40.29 81.2387 39.66C80.1187 39.016 79.2507 38.127 78.6347 36.993C78.0327 35.845 77.7317 34.536 77.7317 33.066ZM93.6458 33.066C93.6458 31.61 93.9468 30.315 94.5488 29.181C95.1648 28.033 96.0328 27.144 97.1528 26.514C98.2728 25.87 99.5608 25.548 101.017 25.548C102.865 25.548 104.419 26.045 105.679 27.039C106.939 28.019 107.751 29.356 108.115 31.05H103.684C103.418 30.49 103.047 30.063 102.571 29.769C102.109 29.475 101.57 29.328 100.954 29.328C100.002 29.328 99.2388 29.671 98.6648 30.357C98.1048 31.029 97.8248 31.932 97.8248 33.066C97.8248 34.214 98.1048 35.131 98.6648 35.817C99.2388 36.489 100.002 36.825 100.954 36.825C101.57 36.825 102.109 36.678 102.571 36.384C103.047 36.09 103.418 35.663 103.684 35.103H108.115C107.751 36.797 106.939 38.141 105.679 39.135C104.419 40.115 102.865 40.605 101.017 40.605C99.5608 40.605 98.2728 40.29 97.1528 39.66C96.0328 39.016 95.1648 38.127 94.5488 36.993C93.9468 35.845 93.6458 34.536 93.6458 33.066Z" fill="black"/>
<defs>
<clipPath id="clip0_325_318">
<rect width="28.4923" height="40" fill="white" transform="translate(0 13.5)"/>
</clipPath>
</defs>
</svg>
