<svg width="21" height="21" viewBox="0 0 21 21" fill="none" xmlns="http://www.w3.org/2000/svg">
<path d="M20 3.26645L17.5333 0.799784C17.3213 0.597635 17.0396 0.484863 16.7467 0.484863C16.4537 0.484863 16.172 0.597635 15.96 0.799784L13.7667 2.99978H1.99999C1.64637 2.99978 1.30723 3.14026 1.05718 3.39031C0.807132 3.64036 0.666656 3.9795 0.666656 4.33312V18.9998C0.666656 19.3534 0.807132 19.6925 1.05718 19.9426C1.30723 20.1926 1.64637 20.3331 1.99999 20.3331H16.6667C17.0203 20.3331 17.3594 20.1926 17.6095 19.9426C17.8595 19.6925 18 19.3534 18 18.9998V6.83978L20 4.83978C20.2084 4.63104 20.3255 4.34811 20.3255 4.05312C20.3255 3.75813 20.2084 3.47519 20 3.26645ZM10.5533 12.4198L7.75999 13.0398L8.42666 10.2731L14.7933 3.89312L16.9467 6.04645L10.5533 12.4198ZM17.6667 5.28645L15.5133 3.13312L16.7467 1.89978L18.9 4.05312L17.6667 5.28645Z" fill="#787878"/>
</svg>
