<svg width="50" height="51" viewBox="0 0 50 51" fill="none" xmlns="http://www.w3.org/2000/svg">
<path d="M6.57903 49.1843H43.4211C46.0527 49.1843 48.329 46.5527 48.329 43.9212C48.329 38.1909 42.233 29.4475 25.0001 29.4475C7.24746 29.4475 1.56982 37.9462 1.56982 43.9212C1.56982 46.5527 3.94746 49.1843 6.57903 49.1843Z" fill="#77B255"/>
<path d="M16.1724 40.6316C17.6526 35.6974 29.0013 30.5448 35.0316 30.5988C41.6105 30.658 38.4855 31.6409 37.1697 31.6409C35.8539 31.6409 21.6553 35.0948 18.7487 41.5093C17.4329 41.5093 16.1724 40.6316 16.1724 40.6316Z" fill="#5C913B"/>
<path d="M26.3157 41.9473C26.3157 43.7644 22.4868 45.2368 17.7631 45.2368C13.0394 45.2368 9.21045 43.7644 9.21045 41.9473C9.21045 40.1302 13.0394 38.6579 17.7631 38.6579C22.4868 38.6579 26.3157 40.1302 26.3157 41.9473Z" fill="#292F33"/>
<path d="M14.4736 7.07885V41.2894C14.4736 42.017 15.0631 42.3999 15.7894 42.3999C16.5157 42.3999 17.1052 42.017 17.1052 41.2894V7.07885H14.4736Z" fill="#FFAC33"/>
<path d="M14.4736 5.76312C14.4736 2.86838 16.7039 1.29602 19.4302 2.2697L31.8855 6.71839C34.6118 7.69207 34.6118 9.28549 31.8855 10.2592L19.4302 14.7079C16.7039 15.6815 14.4736 14.1092 14.4736 11.2144V5.76312Z" fill="#DD2E44"/>
</svg>
