<?xml version="1.0" encoding="utf-8"?>
<!-- Generator: Adobe Illustrator 21.0.0, SVG Export Plug-In . SVG Version: 6.00 Build 0)  -->
<!DOCTYPE svg PUBLIC "-//W3C//DTD SVG 1.1//EN" "http://www.w3.org/Graphics/SVG/1.1/DTD/svg11.dtd">
<svg version="1.1" id="Layer_1" xmlns="http://www.w3.org/2000/svg" xmlns:xlink="http://www.w3.org/1999/xlink" x="0px" y="0px"
	 viewBox="0 0 1000 1000.1" style="enable-background:new 0 0 1000 1000.1;" xml:space="preserve">
<style type="text/css">
	.st0{fill:#128141;}
</style>
<path class="st0" d="M509.6,97.5c-120.3,0-229.8,47.6-310.5,124.9c-0.2-0.2-0.3-0.4-0.5-0.7c-1.6-2.2-6.4-4.4-10.1-4.7
	c-3.2-0.3-18,1.7-19.1,1.2c-1.1-0.4-8.7-18.4-11.6-20.4c-1.6-1.1-3.3-2.4-3.5-2.6C153,193.1,63.5,36.8,64.1,36.1
	c0.6-0.7,37.6,11.4,43.9,12.2c6.5,0.8,10-2.5,10.1-7.1c0.1-4.1-2.2-14.2-6.7-21.3c-3.9-6.1-9.2-11.2-13.7-12.9
	c-4.2-1.6-18.5-2.4-22.8-2.5C66.3,4.2,48.8,4.6,44,4.6c-3.3,0-7.4,2.8-6.5,7c1,4.6,10.3,19.8,10.3,19.8s89.7,168.5,90.6,170.6
	c0.9,2.1,1.2,4,1.6,5.8c0.5,2.6,2.3,5.1,4.6,9.8c2.3,4.7,4.2,7.5,1.1,8.8c-5.3,2.1-10.7,6.7-9.5,16.5c0.6,4.9,2.3,14.7,2.3,14.7
	s-9.5,7.2-8.4,13.2c1.1,6,5.2,10.6,7.9,14.7c0.9,1.4,2,2.9,3.3,4.7c-50.8,72.8-80.7,161.2-80.7,256.5c0,173.8,99.2,324.8,244,399.5
	c4.4,3.3,10.8,6.3,18.6,9c56.8,26.1,120,40.6,186.5,40.6c247.7,0,449.1-201.5,449.1-449.1C958.8,299,757.3,97.5,509.6,97.5z
	 M167,318.8c3.7,3.7,7.1,7.4,9.9,11.1c6,8.1,17.9,9.1,20.4,19.7c2,8.6-2.8,32.9-3.5,37.9c-1.8,12.6-25.7,74.2-28.8,82.2
	c-10.2,26.3-10.5,65.3-10.5,88.8c0,17.6-0.7,60.8,8.1,70.9c5.2,6,24.6,4.2,28.8,4.2c9.1,0,39.1-8.8,49.5-14.4
	c10.5-5.6,40-25.3,38.6-22.5c-1.4,2.8-13.9,35.2-16.2,40.4c-5.6,12.6-23.4,66.3-33,83.6c-8.4,15.1-38.9,80.4-38.9,80.4
	s-1.3,1.3-2.7,2.8C132,733.4,98,643.9,98,546.6C98,462.4,123.4,384.1,167,318.8z M305.6,441.7c-5,5.3-9.5,6.8-11.1,10
	c-1.6,3.2-1.3,8.7-5,11.7c-3.2,2.6-6.1,5.4-11.9,9.5c-5.6,3.8-17.8,11.5-22,14.4c-6.6,4.5-10.5,4.2-10.5,4.2s3.7-69.5,5-76.4
	c1.3-6.8,6.1-50,10.4-55.3c0,0,29.5,22.5,36.3,34c2.5,4.2,22,27.3,23.1,28.9C320.8,424.2,310.6,436.4,305.6,441.7z M509.6,958.3
	c-12.9,0-25.6-0.6-38.2-1.8c-0.7-3.2-1.8-6.2-2.8-8.1c-3.3-6.2-0.4-10.2,1.1-13c1.4-2.8,2.8-9.8,4.2-14c1.4-4.2,5.3-17.6,5.3-21.4
	c0-3.9,4.8-13.3,9.1-19.7c5.2-7.6,14.6-19.8,25.1-35.3c10.5-15.5,16-29.3,24.4-46.2c8.4-16.9,21.8-14.7,32.3-24.6
	c10.5-9.8,19.7-22.5,35.1-33c15.5-10.5,21.1-20.7,33.7-30.6c12.6-9.8,23.5-16.9,37.9-27c14.2-10,26.7-19,42.8-34.4
	c16.2-15.5,15.5-49.3,5.2-67.2c-8.6-15-19.4-30.1-21.1-32c-1.1-1.2,4.8-1.7,9.7-6.8c2.3-2.5,4.3-3.8,6.4-4.5
	c2.4-0.8,4.9-2.8,6.3-3.2c4.4-1.4,8.2-5.4,10.5-9c2.9-4.3,5.6-7.3,7.6-6.5c2.2,1,4.4,3.2,11.4,7.6c6.2,3.9,9.1-1.6,11.9-8.6
	c2.8-7,11.8-32,13.2-37.6c1.4-5.6,7.9-6.3,11.2-10.7c2.5-3.2,3.7-5,5.8-9.9c2.2-5.2,6.5-10.3,7.2-10.3c2.5,0,19.3,9.3,30.2,16.2
	c12.6,7.9,27.6,13.4,28.8,8.8c7-27.7-32.3-54.9-37.2-58.3c-2.5-1.8,0-7.1,2.8-13.3c3.5-7.9,4.7-18.7,5.9-28.5
	c2.1-16.5-1.6-31.2-4.9-38.5c-5.6-12.6-19.6-27.6-26.6-34.2c-8.1-7.6-27.8-16.1-50-23.8c-28.1-9.8-62.5,0-76.9,5.3
	c-11.6,4.2-33.4,18.3-43.2,32c-9.3,12.9-16.9,40.7-22.5,56.2c-5.6,15.5-28.9,32.2-28.9,32.2c-4.7-4.2-13.4-2.4-17.6,0.5
	c-4.2,2.9-10,6.3-17.7,10.1c-12.6,6.3-40.6-6.1-51.6-12.6c-7.9-4.7-23.2-11.6-37.9-22.1c-6.7-4.8-21.2-7.7-36-8
	c-8.3-0.1-27.2,4.1-27.2,4.1s-75-52.1-80.2-55.5c-5.3-3.4-8.1-7.7-11.6-10.5c-3.5-2.8-8.4-3.9-11.9-6.3c-1.2-0.9-4-7.1-5.5-10.3
	c-1.5-3.2-9.8-13.8-14.7-18.7c-4.9-4.9-12.6-15.8-20.5-23.7c-3.4-3.4-8.3-8-13.3-12.5C309.4,174.2,405,135,509.6,135
	c227,0,411.6,184.7,411.6,411.6C921.3,773.6,736.6,958.3,509.6,958.3z"/>
</svg>
