<svg width="85" height="137" viewBox="0 0 85 137" fill="none" xmlns="http://www.w3.org/2000/svg">
<path d="M20.7945 7.55815C22.3964 3.75698 25.9141 1.16961 29.6917 1.00426C33.2514 0.894187 36.8089 2.92614 38.6781 6.31392C39.5648 7.6459 39.6179 9.39331 40.349 10.7927C52.7758 12.913 65.2172 14.9546 77.654 17.0083C79.9963 16.9525 82.5096 17.8945 83.7226 20.2673C85.422 22.8384 85.5016 27.2488 82.9905 29.2026C81.9454 30.1562 80.4808 29.3046 79.7437 28.3018C78.1688 26.0071 78.0338 23.0109 77.7519 20.2561C65.165 18.1836 52.5818 16.0821 39.9963 13.9969C39.2193 17.7955 36.6584 21.1767 33.2396 22.2845C30.0463 23.5394 26.3419 22.7278 23.6963 20.4311C21.0818 18.111 19.6867 14.3388 19.9137 10.6528C16.127 10.0735 12.3562 9.37251 8.5686 8.80137C6.49542 11.0281 4.90175 14.039 4.96352 17.3238C4.97862 21.478 7.60407 25.1919 10.9438 26.8516C14.1361 28.7923 17.8812 29.1661 21.4557 28.8825C25.9525 28.5194 30.1131 26.0015 34.658 26.076C37.331 26.3677 38.1816 30.1937 36.8881 32.4494C36.3555 34.4448 34.5669 35.2472 32.9417 35.8306C25.2415 38.2597 16.7588 37.7905 9.43475 34.1253C6.71001 32.6477 4.05024 30.5153 2.76634 27.369C1.1745 23.6109 0.3326 19.2026 1.65128 15.1823C2.57142 12.3991 4.44923 10.0887 6.68393 8.5016C6.0278 8.30987 5.37761 8.09784 4.72788 7.88582C4.61212 7.56931 4.38014 6.9368 4.26392 6.62029C4.42132 6.28805 4.73657 5.62308 4.89351 5.29084C6.74982 5.09099 8.58416 5.54192 10.4107 5.84271C13.8726 6.40877 17.3303 7.00578 20.7945 7.55815Z" fill="#E4E4E4" stroke="#DCD3D3" stroke-width="0.1" stroke-miterlimit="10"/>
<path d="M20.7945 7.55815C22.3964 3.75698 25.9141 1.16961 29.6917 1.00426C33.2514 0.894187 36.8089 2.92614 38.6781 6.31392C39.5648 7.6459 39.6179 9.39331 40.349 10.7927C52.7758 12.913 65.2172 14.9546 77.654 17.0083C79.9963 16.9525 82.5096 17.8945 83.7226 20.2673C85.422 22.8384 85.5016 27.2488 82.9905 29.2026C81.9454 30.1562 80.4808 29.3046 79.7437 28.3018C78.1688 26.0071 78.0338 23.0109 77.7519 20.2561C65.165 18.1836 52.5818 16.0821 39.9963 13.9969C39.2193 17.7955 36.6584 21.1767 33.2396 22.2845C30.0463 23.5394 26.3419 22.7278 23.6963 20.4311C21.0818 18.111 19.6867 14.3388 19.9137 10.6528C16.127 10.0735 12.3562 9.37251 8.5686 8.80137C6.49542 11.0281 4.90175 14.039 4.96352 17.3238C4.97862 21.478 7.60407 25.1919 10.9438 26.8516C14.1361 28.7923 17.8812 29.1661 21.4557 28.8825C25.9525 28.5194 30.1131 26.0015 34.658 26.076C37.331 26.3677 38.1816 30.1937 36.8881 32.4494C36.3555 34.4448 34.5669 35.2472 32.9417 35.8306C25.2415 38.2597 16.7588 37.7905 9.43475 34.1253C6.71001 32.6477 4.05024 30.5153 2.76634 27.369C1.1745 23.6109 0.3326 19.2026 1.65128 15.1823C2.57142 12.3991 4.44923 10.0887 6.68393 8.5016C6.0278 8.30987 5.37761 8.09784 4.72788 7.88582C4.61212 7.56931 4.38014 6.9368 4.26392 6.62029C4.42132 6.28805 4.73657 5.62308 4.89351 5.29084C6.74982 5.09099 8.58416 5.54192 10.4107 5.84271C13.8726 6.40877 17.3303 7.00578 20.7945 7.55815Z" fill="#E4E4E4"/>
<path d="M34.5247 62.276C35.9084 59.7952 38.796 59.9316 41.0637 60.4003C42.914 62.3886 44.4789 64.7711 45.2205 67.537C46.7369 73.3275 46.7561 79.4142 47.6982 85.3219C49.9421 100.189 54.8182 114.343 59.2314 128.539C59.8989 131.053 61.4432 133.351 61.3196 136.058C58.1405 132.195 55.7498 127.63 52.8279 123.532C49.8904 119.402 47.8904 114.606 45.7769 109.933C40.9969 98.5596 36.6899 86.8634 34.0113 74.6468C33.3699 70.6032 32.6259 66.0397 34.5247 62.276Z" fill="#E4E4E4" stroke="#DCD3D3" stroke-width="0.1" stroke-miterlimit="10"/>
<path d="M34.5247 62.276C35.9084 59.7952 38.796 59.9316 41.0637 60.4003C42.914 62.3886 44.4789 64.7711 45.2205 67.537C46.7369 73.3275 46.7561 79.4142 47.6982 85.3219C49.9421 100.189 54.8182 114.343 59.2314 128.539C59.8989 131.053 61.4432 133.351 61.3196 136.058C58.1405 132.195 55.7498 127.63 52.8279 123.532C49.8904 119.402 47.8904 114.606 45.7769 109.933C40.9969 98.5596 36.6899 86.8634 34.0113 74.6468C33.3699 70.6032 32.6259 66.0397 34.5247 62.276Z" fill="#E4E4E4"/>
<path d="M21.0753 69.7151C22.7761 66.3425 25.7982 63.8799 29.2569 63.252C30.7897 63.8885 32.2379 65.1444 32.4241 67.0739C33.514 73.4731 30.6643 79.5533 28.0055 85.008C23.262 94.4632 20.9097 105.058 18.5396 115.469C17.1019 122.211 16.0349 129.048 14.4632 135.755C14.0061 135.124 13.5335 134.434 13.6735 133.57C13.6872 127.633 13.8281 121.698 13.7668 115.76C14.0985 105.87 14.9821 95.9941 16.5497 86.2466C17.6812 80.6347 18.4966 74.7939 21.0753 69.7151Z" fill="#E4E4E4" stroke="#DCD3D3" stroke-width="0.1" stroke-miterlimit="10"/>
<path d="M21.0753 69.7151C22.7761 66.3425 25.7982 63.8799 29.2569 63.252C30.7897 63.8885 32.2379 65.1444 32.4241 67.0739C33.514 73.4731 30.6643 79.5533 28.0055 85.008C23.262 94.4632 20.9097 105.058 18.5396 115.469C17.1019 122.211 16.0349 129.048 14.4632 135.755C14.0061 135.124 13.5335 134.434 13.6735 133.57C13.6872 127.633 13.8281 121.698 13.7668 115.76C14.0985 105.87 14.9821 95.9941 16.5497 86.2466C17.6812 80.6347 18.4966 74.7939 21.0753 69.7151Z" fill="#E4E4E4"/>
</svg>
