<svg width="120" height="267" viewBox="0 0 120 267" fill="none" xmlns="http://www.w3.org/2000/svg">
<path d="M52.8387 0.302571C45.119 1.65537 38.6192 7.46202 36.0993 15.225C32.2794 27.0673 38.8592 40.0958 50.4188 43.5506C57.9786 45.7984 65.9983 43.6547 71.4581 37.9105C73.338 35.9333 74.558 34.1643 75.598 31.8957C77.8779 26.9632 78.3379 21.3022 76.8779 16.0367C73.898 5.27672 63.4784 -1.54973 52.8387 0.302571Z" fill="#E4E4E4"/>
<path d="M105.896 28.6082C101.036 29.3575 96.6162 30.96 90.0365 34.3733L86.3566 36.2672L85.0966 37.953C83.4767 40.1175 80.1168 43.4683 78.0569 44.9876C75.7969 46.6525 72.537 48.38 70.7771 48.8587C69.9571 49.0668 68.0972 49.3581 66.6572 49.483C65.1973 49.6079 62.7974 49.816 61.3574 49.9409C57.0576 50.3155 55.3176 50.8983 52.7777 52.8546C49.9578 55.0191 47.3779 58.3907 46.1979 61.4293C45.138 64.1974 44.918 65.5085 44.938 69.1715C44.958 76.0604 46.8379 83.6985 50.4978 91.8778C52.5577 96.4565 53.6577 97.8093 63.4573 107.778C68.1372 112.544 70.2371 115.292 72.0571 119.121C76.2769 127.966 79.7768 145.886 80.1368 160.33C80.3768 170.881 78.9968 175.918 72.797 186.969C67.7772 195.898 65.2173 199.602 58.3775 207.907C50.8978 216.96 48.7978 219.145 41.3981 225.576C32.1184 233.631 30.3984 236.003 29.8985 241.498C29.5385 245.515 31.0984 250.593 33.2384 252.279C35.5183 254.089 37.7382 253.881 42.898 251.3C51.0378 247.242 61.9574 238.959 69.3971 231.196C78.4768 221.747 86.4966 208.906 92.6764 193.962C94.0363 190.695 94.6363 189.425 94.3363 190.507C94.0563 191.486 91.5564 211.882 90.5964 220.894C90.0365 226.305 89.7765 228.219 88.2965 237.439C86.3766 249.511 86.2966 250.114 86.2966 254.818C86.2966 259.875 86.4566 260.541 88.1565 262.456C90.7764 265.411 94.6163 266.868 97.8962 266.16C101.596 265.37 104.836 261.894 106.616 256.816C109.836 247.596 112.576 230.363 117.576 187.906C120.175 165.949 120.295 164.097 119.715 158.456C119.295 154.648 119.055 151.339 118.596 143.472C117.996 133.44 117.556 128.903 116.676 123.492C114.156 108.215 106.076 90.1712 93.4563 71.6274C92.4364 70.1289 91.5964 68.8593 91.5964 68.8177C91.5964 68.7761 92.4364 67.9852 93.4363 67.0695C100.656 60.6176 108.416 52.5841 111.896 47.9429C115.156 43.5931 116.436 40.6586 116.436 37.4327C116.436 33.8321 114.976 31.0017 112.416 29.6489C110.876 28.8164 107.756 28.3169 105.896 28.6082Z" fill="#E4E4E4"/>
<path d="M20.1993 70.6287C9.57968 83.9694 0.699977 95.1248 0.439985 95.4578L0 96.0614L0.89997 98.1842C3.51988 104.324 5.9998 108.466 8.8597 111.504C10.9596 113.71 12.8196 114.772 15.7795 115.375C18.2994 115.916 20.1593 115.542 20.9193 114.314C21.1993 113.898 21.2393 113.502 21.1393 112.274C20.8593 108.903 18.2794 102.95 13.0796 93.7096L12.7196 93.0644L14.1995 91.108C15.0195 90.0258 22.4593 80.2232 30.739 69.3175C39.0187 58.4118 45.7985 49.4209 45.7985 49.3377C45.7985 49.2128 39.8387 46.3615 39.5987 46.4031C39.5387 46.4031 30.819 57.3088 20.1993 70.6287Z" fill="#E4E4E4"/>
</svg>
