<svg width="51" height="50" viewBox="0 0 51 50" fill="none" xmlns="http://www.w3.org/2000/svg">
<path d="M45.666 9.44922V15.2256C42.4775 15.2246 39.8906 12.6377 39.8896 9.44922H45.666ZM45.666 26V31.7764H39.8896C39.8906 28.5869 42.4775 26 45.666 26ZM11.1104 31.7764H5.33398V26C8.52246 26 11.1104 28.5869 11.1104 31.7764ZM11.1094 9.44922C11.1104 12.6377 8.52246 15.2256 5.33398 15.2256V9.44922H11.1094ZM13.2129 18.5195C14.3691 18.5195 15.3066 19.4561 15.3066 20.6123C15.3066 21.7686 14.3691 22.7061 13.2129 22.7061C12.0576 22.7061 11.1201 21.7686 11.1201 20.6123C11.1201 19.4561 12.0576 18.5195 13.2129 18.5195Z" fill="#77D379"/>
<path d="M25.5 26.3877C28.6897 26.3877 31.2754 23.802 31.2754 20.6123C31.2754 17.4226 28.6897 14.8369 25.5 14.8369C22.3103 14.8369 19.7246 17.4226 19.7246 20.6123C19.7246 23.802 22.3103 26.3877 25.5 26.3877Z" fill="#77D379"/>
<path d="M37.7871 18.5195C38.9424 18.5195 39.8799 19.4561 39.8799 20.6123C39.8799 21.7686 38.9424 22.7061 37.7871 22.7061C36.6309 22.7061 35.6934 21.7686 35.6934 20.6123C35.6934 19.4561 36.6309 18.5195 37.7871 18.5195Z" fill="#77D379"/>
<path d="M45.666 15.2256V26C42.4775 26 39.8906 28.5869 39.8896 31.7764H11.1104C11.1104 28.5869 8.52246 26 5.33398 26V15.2256C8.52246 15.2256 11.1104 12.6377 11.1094 9.44922H39.8896C39.8906 12.6377 42.4775 15.2246 45.666 15.2256ZM39.8799 20.6123C39.8799 19.4561 38.9424 18.5195 37.7871 18.5195C36.6309 18.5195 35.6934 19.4561 35.6934 20.6123C35.6934 21.7686 36.6309 22.7061 37.7871 22.7061C38.9424 22.7061 39.8799 21.7686 39.8799 20.6123ZM31.2754 20.6123C31.2754 17.4229 28.6895 14.8369 25.5 14.8369C22.3105 14.8369 19.7246 17.4229 19.7246 20.6123C19.7246 23.8018 22.3105 26.3877 25.5 26.3877C28.6895 26.3877 31.2754 23.8018 31.2754 20.6123ZM15.3066 20.6123C15.3066 19.4561 14.3691 18.5195 13.2129 18.5195C12.0576 18.5195 11.1201 19.4561 11.1201 20.6123C11.1201 21.7686 12.0576 22.7061 13.2129 22.7061C14.3691 22.7061 15.3066 21.7686 15.3066 20.6123Z" fill="#2D9637"/>
<path d="M5.7168 34.2803H20.5684V35.0615H5.7168C5.50586 35.0615 5.33398 34.8867 5.33398 34.6709C5.33398 34.4551 5.50586 34.2803 5.7168 34.2803ZM45.666 34.6709C45.666 34.8867 45.4941 35.0615 45.2832 35.0615H30.4316V34.2803H45.2832C45.4941 34.2803 45.666 34.4551 45.666 34.6709Z" fill="#2D9637"/>
<path d="M5.7168 37.0254H20.5684V37.8066H5.7168C5.50586 37.8066 5.33398 37.6318 5.33398 37.416C5.33398 37.2002 5.50586 37.0254 5.7168 37.0254ZM45.666 37.416C45.666 37.6318 45.4941 37.8066 45.2832 37.8066H30.4316V37.0254H45.2832C45.4941 37.0254 45.666 37.2002 45.666 37.416Z" fill="#2D9637"/>
<path d="M5.7168 39.7695H20.5684V40.5508H5.7168C5.50586 40.5508 5.33398 40.376 5.33398 40.1602C5.33398 39.9443 5.50586 39.7695 5.7168 39.7695ZM45.666 40.1602C45.666 40.376 45.4941 40.5508 45.2832 40.5508H30.4316V39.7695H45.2832C45.4941 39.7695 45.666 39.9443 45.666 40.1602Z" fill="#2D9637"/>
<path opacity="0.2" d="M5.33398 20.6123H45.666V31.7764H5.33398V20.6123Z" fill="url(#paint0_linear_1320_9757)"/>
<defs>
<linearGradient id="paint0_linear_1320_9757" x1="25.5" y1="20.6123" x2="25.5" y2="31.7764" gradientUnits="userSpaceOnUse">
<stop/>
<stop offset="1" stop-color="white" stop-opacity="0"/>
</linearGradient>
</defs>
</svg>
