<svg width="186" height="186" viewBox="0 0 186 186" fill="none" xmlns="http://www.w3.org/2000/svg">
<path d="M11.625 46.5H42.625C44.95 46.5 46.5 44.95 46.5 42.625V11.625C46.5 9.3 44.95 7.75 42.625 7.75H11.625C9.3 7.75 7.75 9.3 7.75 11.625V42.625C7.75 44.95 9.3 46.5 11.625 46.5ZM15.5 15.5H38.75V38.75H15.5V15.5ZM73.625 46.5H89.125C91.45 46.5 93 44.95 93 42.625V27.125C93 24.8 91.45 23.25 89.125 23.25H73.625C71.3 23.25 69.75 24.8 69.75 27.125V42.625C69.75 44.95 71.3 46.5 73.625 46.5ZM77.5 31H85.25V38.75H77.5V31ZM27.125 116.25H42.625C44.95 116.25 46.5 114.7 46.5 112.375V96.875C46.5 94.55 44.95 93 42.625 93H27.125C24.8 93 23.25 94.55 23.25 96.875V112.375C23.25 114.7 24.8 116.25 27.125 116.25ZM31 100.75H38.75V108.5H31V100.75ZM42.625 139.5H11.625C9.3 139.5 7.75 141.05 7.75 143.375V174.375C7.75 176.7 9.3 178.25 11.625 178.25H42.625C44.95 178.25 46.5 176.7 46.5 174.375V143.375C46.5 141.05 44.95 139.5 42.625 139.5ZM38.75 170.5H15.5V147.25H38.75V170.5ZM174.375 7.75H143.375C141.05 7.75 139.5 9.3 139.5 11.625V42.625C139.5 44.95 141.05 46.5 143.375 46.5H174.375C176.7 46.5 178.25 44.95 178.25 42.625V11.625C178.25 9.3 176.7 7.75 174.375 7.75ZM170.5 38.75H147.25V15.5H170.5V38.75Z" fill="#010101"/>
<path d="M23.25 23.25H31V31H23.25V23.25ZM155 23.25H162.75V31H155V23.25ZM23.25 155H31V162.75H23.25V155ZM174.375 135.625H158.875C156.55 135.625 155 137.175 155 139.5V170.5H131.75V96.875C131.75 94.55 130.2 93 127.875 93H89.125C86.8 93 85.25 94.55 85.25 96.875C85.25 99.2 86.8 100.75 89.125 100.75H124V174.375C124 176.7 125.55 178.25 127.875 178.25H158.875C161.2 178.25 162.75 176.7 162.75 174.375V143.375H170.5V174.375C170.5 176.7 172.05 178.25 174.375 178.25C176.7 178.25 178.25 176.7 178.25 174.375V139.5C178.25 137.175 176.7 135.625 174.375 135.625Z" fill="#010101"/>
<path d="M174.375 89.125H158.875C156.55 89.125 155 90.675 155 93C155 95.325 156.55 96.875 158.875 96.875H170.5V120.125H143.375C141.05 120.125 139.5 121.675 139.5 124V158.875C139.5 161.2 141.05 162.75 143.375 162.75C145.7 162.75 147.25 161.2 147.25 158.875V127.875H174.375C176.7 127.875 178.25 126.325 178.25 124V93C178.25 90.675 176.7 89.125 174.375 89.125Z" fill="#010101"/>
<path d="M174.375 54.25H143.375C141.05 54.25 139.5 55.8 139.5 58.125V108.5C139.5 110.825 141.05 112.375 143.375 112.375H162.75C165.075 112.375 166.625 110.825 166.625 108.5C166.625 106.175 165.075 104.625 162.75 104.625H147.25V62H170.5V69.75H158.875C156.55 69.75 155 71.3 155 73.625C155 75.95 156.55 77.5 158.875 77.5H174.375C176.7 77.5 178.25 75.95 178.25 73.625V58.125C178.25 55.8 176.7 54.25 174.375 54.25ZM11.625 62H58.125C60.45 62 62 60.45 62 58.125V15.5H89.125C91.45 15.5 93 13.95 93 11.625C93 9.3 91.45 7.75 89.125 7.75H58.125C55.8 7.75 54.25 9.3 54.25 11.625V54.25H11.625C9.3 54.25 7.75 55.8 7.75 58.125C7.75 60.45 9.3 62 11.625 62ZM11.625 131.75H69.75V158.875C69.75 161.2 71.3 162.75 73.625 162.75C75.95 162.75 77.5 161.2 77.5 158.875V127.875C77.5 125.55 75.95 124 73.625 124H15.5V73.625C15.5 71.3 13.95 69.75 11.625 69.75C9.3 69.75 7.75 71.3 7.75 73.625V127.875C7.75 130.2 9.3 131.75 11.625 131.75Z" fill="#010101"/>
<path d="M89.125 170.5H62V143.375C62 141.05 60.45 139.5 58.125 139.5C55.8 139.5 54.25 141.05 54.25 143.375V174.375C54.25 176.7 55.8 178.25 58.125 178.25H89.125C91.45 178.25 93 176.7 93 174.375C93 172.05 91.45 170.5 89.125 170.5ZM112.375 108.5H62V73.625C62 71.3 60.45 69.75 58.125 69.75H27.125C24.8 69.75 23.25 71.3 23.25 73.625V81.375C23.25 83.7 24.8 85.25 27.125 85.25C29.45 85.25 31 83.7 31 81.375V77.5H54.25V112.375C54.25 114.7 55.8 116.25 58.125 116.25H112.375C114.7 116.25 116.25 114.7 116.25 112.375C116.25 110.05 114.7 108.5 112.375 108.5ZM112.375 139.5H104.625C102.3 139.5 100.75 141.05 100.75 143.375C100.75 145.7 102.3 147.25 104.625 147.25H112.375C114.7 147.25 116.25 145.7 116.25 143.375C116.25 141.05 114.7 139.5 112.375 139.5Z" fill="#010101"/>
<path d="M112.375 124H89.125C86.8 124 85.25 125.55 85.25 127.875V158.875C85.25 161.2 86.8 162.75 89.125 162.75H108.5V170.5H104.625C102.3 170.5 100.75 172.05 100.75 174.375C100.75 176.7 102.3 178.25 104.625 178.25H112.375C114.7 178.25 116.25 176.7 116.25 174.375V158.875C116.25 156.55 114.7 155 112.375 155H93V131.75H112.375C114.7 131.75 116.25 130.2 116.25 127.875C116.25 125.55 114.7 124 112.375 124ZM104.625 15.5H124V77.5H73.625C71.3 77.5 69.75 79.05 69.75 81.375V96.875C69.75 99.2 71.3 100.75 73.625 100.75C75.95 100.75 77.5 99.2 77.5 96.875V85.25H127.875C130.2 85.25 131.75 83.7 131.75 81.375V11.625C131.75 9.3 130.2 7.75 127.875 7.75H104.625C102.3 7.75 100.75 9.3 100.75 11.625C100.75 13.95 102.3 15.5 104.625 15.5Z" fill="#010101"/>
<path d="M69.75 58.125V65.875C69.75 68.2 71.3 69.75 73.625 69.75C75.95 69.75 77.5 68.2 77.5 65.875V62H104.625C106.95 62 108.5 60.45 108.5 58.125V31H112.375C114.7 31 116.25 29.45 116.25 27.125C116.25 24.8 114.7 23.25 112.375 23.25H104.625C102.3 23.25 100.75 24.8 100.75 27.125V54.25H73.625C71.3 54.25 69.75 55.8 69.75 58.125Z" fill="#010101"/>
</svg>
