<svg width="21" height="23" viewBox="0 0 21 23" fill="none" xmlns="http://www.w3.org/2000/svg">
<g clip-path="url(#clip0_13_68)">
<path fill-rule="evenodd" clip-rule="evenodd" d="M2.86865 4.20416V22.4284H15.0261C15.4706 22.4284 15.9045 22.2646 16.2136 22.107C16.4116 22.006 16.5145 21.942 16.687 21.8239L17.4445 21.0316C17.7866 20.5397 18.0001 19.914 18.0001 19.2358V0.812012H5.9407C5.44855 0.812012 4.99617 0.962671 4.65427 1.13259C3.52529 1.69387 2.86865 2.8536 2.86865 4.20416V4.20416Z" fill="#322C2B"/>
<path fill-rule="evenodd" clip-rule="evenodd" d="M3.49107 21.8229C6.98176 21.875 10.5944 21.8243 14.1109 21.8243C14.8603 21.8243 15.3341 21.867 15.959 21.548C16.4374 21.3039 16.8006 20.9541 17.0565 20.5031C17.3743 19.9429 17.3995 19.4446 17.3995 18.7036V3.57209C17.3995 2.92466 17.4485 2.04862 17.3932 1.42926C16.9945 1.37879 7.86716 1.42045 6.79041 1.42045C6.00377 1.42045 5.59922 1.37581 4.93597 1.68564C4.48814 1.89483 4.056 2.32635 3.83399 2.72562C3.50046 3.32512 3.48051 3.75441 3.48051 4.53652V19.668C3.48051 20.2702 3.42225 21.2678 3.49122 21.8229H3.49107Z" fill="#FCFCFC"/>
<path fill-rule="evenodd" clip-rule="evenodd" d="M4.79509 7.23522C4.19524 7.39708 4.3813 7.87101 4.49986 8.79064C4.53919 9.0954 4.56545 9.40806 4.6127 9.71222C4.65995 10.0162 4.77895 10.2757 4.8193 10.5482C4.84865 10.5765 4.8419 10.5662 4.87125 10.6096C4.89135 10.6395 4.89032 10.6384 4.90984 10.6762C5.33478 11.4976 5.44601 11.5321 6.65129 11.9266C7.69942 12.2697 8.22518 12.472 9.31351 12.4557L9.62488 12.4277C9.63472 12.7281 9.45643 13.1287 9.46157 13.582C9.4937 16.4019 12.6451 17.9983 14.7643 16.109C16.3735 14.6744 16.168 11.8013 14.1214 10.7441C13.1327 10.2333 12.6919 10.4425 11.8308 10.4872C11.9041 10.3265 13.6557 8.13351 13.9021 7.81576C13.987 7.70616 14.1712 7.52923 14.0931 7.34826C13.9119 7.32003 13.8346 7.52072 13.7233 7.66734C13.6099 7.81696 13.514 7.95119 13.4021 8.10529C12.9217 8.76765 12.0331 10.0869 11.4111 10.5712C11.6183 10.3101 11.8178 10.0228 12.0369 9.74149L13.6507 7.62643C13.763 7.47204 13.8943 7.37916 13.9031 7.13533C13.8167 7.07337 13.6052 6.93346 13.6743 6.82087C13.8479 6.61541 13.8469 6.94615 14.1022 6.95794C14.1247 6.72785 13.8349 6.57823 13.6397 6.53926C13.375 6.48118 13.3015 6.68977 13.1658 6.83371C13.0384 6.9687 12.9002 7.09173 12.7725 7.23119L12.2045 7.8513C12.1264 7.93103 12.0575 7.97687 11.9829 8.0581C11.0594 9.06449 11.2115 8.77631 9.89356 8.29507C8.52584 7.79575 7.62664 7.49668 6.18468 7.24911C5.58086 7.14548 5.37866 7.09412 4.79495 7.23537L4.79509 7.23522Z" fill="#051629"/>
<path fill-rule="evenodd" clip-rule="evenodd" d="M4.79492 7.23559C5.37864 7.09434 5.58084 7.14555 6.18465 7.24933C7.62662 7.49704 8.52581 7.79597 9.89353 8.29529C11.2115 8.77638 11.0593 9.06456 11.9829 8.05832C12.0574 7.97709 12.1264 7.93125 12.2045 7.85152L12.7725 7.23141C12.9003 7.09195 13.0384 6.96891 13.1657 6.83393C13.3015 6.68999 13.375 6.4814 13.6397 6.53948C13.5807 6.46005 13.5737 6.49096 13.6437 6.36016C13.6869 6.27952 13.7229 6.2416 13.7822 6.16366C13.8872 6.02509 13.9553 5.91878 14.0783 5.79768C14.4183 5.78096 14.4589 5.98776 14.7318 6.00299L14.8008 5.93177C14.5505 5.97164 14.4121 5.8044 14.1813 5.73303C14.2507 5.49487 14.7599 4.93061 14.9089 4.78338L15.5487 4.13759C15.6362 4.05711 15.6921 4.03307 15.7527 3.93602C15.6406 3.85718 15.6183 3.76759 15.5286 3.65993C14.6988 2.6634 13.82 2.87603 12.7706 2.93486C11.4467 3.00907 10.0827 3.02848 8.7512 3.0116C7.71334 2.99846 6.85758 2.80017 6.02119 3.25559C5.36147 3.61469 4.87284 4.29482 4.81943 5.16802C4.77746 5.85547 4.87431 6.56039 4.79492 7.23574V7.23559Z" fill="#5DAD2C"/>
<path fill-rule="evenodd" clip-rule="evenodd" d="M9.31355 12.4558C8.22521 12.4721 7.69946 12.2696 6.65133 11.9267C5.44604 11.5322 5.33482 11.4977 4.90987 10.6763C4.89036 10.6385 4.89138 10.6396 4.87128 10.6097C4.84193 10.5663 4.84868 10.5766 4.81934 10.5483L4.85793 16.181C4.92587 16.2125 9.50078 16.212 9.81582 16.1626C9.77972 15.9951 9.51443 15.5997 9.4236 15.3918C9.0302 14.4924 8.80423 13.3287 9.31355 12.4558V12.4558Z" fill="#D02B34"/>
<path fill-rule="evenodd" clip-rule="evenodd" d="M4.98306 7.95523L5.34549 10.1355C5.46376 10.8687 5.64879 11.3247 6.37983 11.6055C6.98189 11.8368 7.6777 12.0196 8.33831 12.1382C9.24293 12.3005 9.80566 12.0984 10.182 11.5469C10.3803 11.2563 10.9492 10.1387 10.8058 9.66504C10.717 9.37193 10.3162 9.32744 9.9951 9.22426C9.68196 9.12347 9.37235 9.02283 9.03897 8.93071C8.1185 8.67627 7.02194 8.34196 6.06802 8.16098C5.73361 8.09753 5.32583 7.96867 4.98291 7.95508L4.98306 7.95523Z" fill="#FCFCFC"/>
<path fill-rule="evenodd" clip-rule="evenodd" d="M10.1234 15.0459C10.2452 14.9933 10.1576 14.9659 10.3194 14.9571L10.3803 15.0764C10.2833 15.1892 10.2761 15.1188 10.1997 15.209C10.3132 15.3517 10.2479 15.2876 10.4192 15.3433C10.5138 15.6497 10.4955 15.629 10.7116 15.8125L10.7228 15.7628C10.7539 15.6072 10.743 15.471 11.1046 15.5139C11.0793 15.7586 11.0509 15.626 11.0821 15.9113L10.919 15.9778C10.9932 16.0774 11.1887 16.1983 11.3348 16.2339C11.3361 15.9676 11.265 15.7698 11.309 15.4843C11.3539 15.1934 11.5174 15.1409 11.5329 14.9136C11.4641 14.7779 11.3287 14.7419 11.3721 14.5237C11.4091 14.3381 11.5802 14.3156 11.7631 14.3782C11.74 14.5654 11.6378 14.4891 11.6072 14.6583C11.5727 14.8487 11.6852 14.8797 11.8494 14.8398C11.8902 14.7398 11.9037 14.5894 11.979 14.5079C12.0808 14.3977 12.191 14.4424 12.3178 14.348C12.3615 14.0255 12.2595 14.1875 12.4202 13.8918C12.457 13.8239 12.4711 13.7727 12.4811 13.6831C12.4927 13.5796 12.4953 13.4869 12.4438 13.4093C12.1979 13.5115 12.4704 13.728 12.0792 13.7479C11.7696 13.3041 12.2553 13.2883 12.4457 13.1273C12.4543 12.9807 12.4601 12.8044 12.2942 12.8545C12.1584 12.8955 12.1919 13.0663 12.1782 13.209C11.9904 13.1702 11.9075 13.0848 11.9818 12.8514C12.0993 12.7469 12.1536 12.7626 12.332 12.7656C12.3414 12.5367 12.4477 12.4832 12.3653 12.2649C12.2548 11.9718 12.3439 12.02 12.4496 11.7932C12.5424 11.5937 12.4616 11.459 12.4604 11.2548C12.4582 10.9069 12.2617 10.8988 12.5093 10.8279L12.5917 11.0526C12.8019 11.0471 12.7234 11.0672 12.8246 10.9444C12.9147 10.8351 12.943 10.8709 12.9916 10.7553C12.516 10.6114 11.7488 10.8276 11.364 11.0214C10.8943 11.2579 10.564 11.5807 10.3034 11.9369C10.0276 12.3139 9.82109 12.8053 9.76974 13.3936C9.7266 13.888 9.85939 14.7389 10.1237 15.0459H10.1234Z" fill="#FCFCFC"/>
<path fill-rule="evenodd" clip-rule="evenodd" d="M12.8799 9.84174C13.9779 9.90953 14.6554 10.2461 15.333 10.942C15.5659 11.1811 15.8838 11.5439 16.0514 11.8318C16.0963 11.5974 16.036 9.11412 16.0322 8.66095L16.0086 6.26652C16.007 6.03225 16.0573 5.64014 15.9734 5.45947C15.8523 5.53667 12.8984 9.71482 12.88 9.84174H12.8799Z" fill="#04216D"/>
<path fill-rule="evenodd" clip-rule="evenodd" d="M10.1312 18.9329C9.95375 18.8808 9.02315 18.8607 8.82668 18.9161C8.75228 19.0454 8.74891 19.2431 8.7988 19.4201C9.28434 19.6109 9.62536 19.168 9.58412 19.8528C9.07774 20.2998 7.8142 20.169 7.99586 18.8055C8.12103 17.8664 9.00804 17.8464 9.33673 18.1088C9.49491 18.235 9.53233 18.4226 9.63005 18.5997C9.81963 18.6205 10.1477 18.5721 10.1416 18.379C10.1268 17.9126 9.57283 17.3495 8.78251 17.3985C6.85235 17.5178 6.87143 20.5558 8.85235 20.651C9.33922 20.6745 9.69388 20.5235 10.0321 20.3067C10.2491 20.1676 10.1979 19.9685 10.1951 19.6688C10.1926 19.404 10.2136 19.1349 10.1312 18.9332V18.9329Z" fill="#051629"/>
<path fill-rule="evenodd" clip-rule="evenodd" d="M16.0891 19.58C15.9547 19.4664 15.7321 19.4031 15.5078 19.3992C15.3829 19.8643 15.1549 20.2234 14.5971 20.0667C13.8146 19.8466 13.7459 18.1526 14.5305 17.9337C14.8412 17.8471 15.2027 17.9362 15.3541 18.2695C15.3759 18.3171 15.3908 18.3624 15.413 18.4094C15.5252 18.6479 15.7148 18.604 16.0334 18.4682C16.1085 17.7966 15.2368 17.2073 14.4946 17.3369C12.8866 17.6177 13.0558 20.2854 14.4724 20.6354C15.5054 20.8906 16.1299 20.1204 16.0888 19.5802L16.0891 19.58Z" fill="#051629"/>
<path fill-rule="evenodd" clip-rule="evenodd" d="M12.6595 19.399C12.5924 19.6294 12.5531 19.8351 12.3961 19.951C11.9494 20.2807 11.1793 20.0858 11.133 19.0374C11.0771 17.774 12.005 17.7777 12.338 18.0471C12.679 18.323 12.4153 18.7955 13.1883 18.4653C13.2332 18.0637 12.8671 17.6926 12.6597 17.553C11.7014 16.9072 10.244 17.5929 10.5457 19.3007C10.6922 20.1294 11.1859 20.7088 12.1196 20.6818C12.5751 20.6686 12.8826 20.4229 13.0552 20.1562C13.3704 19.6688 13.3115 19.4124 12.6596 19.399H12.6595Z" fill="#051629"/>
<path fill-rule="evenodd" clip-rule="evenodd" d="M4.92266 18.0453C5.20586 18.1105 5.5344 18.0444 5.83755 18.0739L5.85707 20.5352C6.01393 20.5909 6.38928 20.6681 6.45531 20.458C6.47145 20.4068 6.47336 20.3562 6.47571 20.3028C6.48055 20.1954 6.47483 20.0762 6.47218 19.968C6.46235 19.5624 6.42156 18.3207 6.49258 18.0665C6.83037 17.913 7.29023 18.2016 7.38913 17.9179C7.42993 17.8011 7.40263 17.5951 7.36199 17.491C6.91063 17.4083 5.69874 17.4847 5.12016 17.4992C4.78135 17.5077 4.85736 17.7911 4.92251 18.0453H4.92266Z" fill="#051629"/>
<path fill-rule="evenodd" clip-rule="evenodd" d="M10.1107 9.08161C10.2444 8.55751 9.80711 8.46434 9.41958 8.31428C8.48605 7.95293 6.64056 7.36209 5.70996 7.36821C5.73681 7.50842 5.88927 7.77106 5.96367 7.87275C6.09118 8.0464 6.21077 8.08373 6.46653 8.1242C7.37922 8.26858 8.07005 8.4718 8.93873 8.7334C9.21503 8.81657 9.87416 9.0837 10.1106 9.08146L10.1107 9.08161Z" fill="#FCFCFC"/>
<path fill-rule="evenodd" clip-rule="evenodd" d="M15.7525 3.9367C15.6921 4.03375 15.6362 4.05794 15.5486 4.13827L14.9088 4.78406C14.7597 4.93129 14.2506 5.49555 14.1812 5.73371C14.412 5.80508 14.5503 5.97232 14.8007 5.93245C14.936 5.78448 15.0784 5.59798 15.213 5.42642C15.4029 5.18423 16.4106 4.06421 16.4845 3.82471C16.376 3.81157 16.1527 3.75259 16.0638 3.75244C15.9245 3.75229 15.8679 3.87354 15.7525 3.9367V3.9367Z" fill="#051629"/>
<path fill-rule="evenodd" clip-rule="evenodd" d="M15.4795 16.3047C15.6754 16.3159 15.9049 16.3617 16.0905 16.2981C16.1574 16.0524 16.1251 15.6471 16.0874 15.3921C16.0057 15.4223 15.5109 16.1684 15.4795 16.3047Z" fill="#D02B34"/>
</g>
<defs>
<clipPath id="clip0_13_68">
<rect width="21" height="22" fill="white" transform="translate(0 0.5)"/>
</clipPath>
</defs>
</svg>
