<svg width="16" height="22" viewBox="0 0 16 22" fill="none" xmlns="http://www.w3.org/2000/svg">
<path fill-rule="evenodd" clip-rule="evenodd" d="M0 3.39215V21.6164H12.1575C12.6019 21.6164 13.0358 21.4526 13.345 21.2949C13.5429 21.194 13.6458 21.1299 13.8184 21.0118L14.5758 20.2196C14.918 19.7277 15.1315 19.1019 15.1315 18.4238V0H3.07205C2.5799 0 2.12752 0.150659 1.78562 0.320581C0.656641 0.881858 0 2.04159 0 3.39215H0Z" fill="#322C2B"/>
<path fill-rule="evenodd" clip-rule="evenodd" d="M0.622419 21.0109C4.1131 21.063 7.72573 21.0123 11.2422 21.0123C11.9916 21.0123 12.4654 21.055 13.0904 20.736C13.5687 20.4919 13.9319 20.1421 14.1878 19.6911C14.5056 19.1309 14.5309 18.6326 14.5309 17.8916V2.76008C14.5309 2.11265 14.5799 1.23661 14.5246 0.617252C14.1259 0.566783 4.99851 0.608442 3.92176 0.608442C3.13511 0.608442 2.73056 0.563797 2.06732 0.873627C1.61949 1.08282 1.18735 1.51434 0.965339 1.91361C0.63181 2.51311 0.611854 2.94239 0.611854 3.72451V18.856C0.611854 19.4582 0.5536 20.4558 0.622565 21.0109H0.622419Z" fill="#FCFCFC"/>
<path fill-rule="evenodd" clip-rule="evenodd" d="M1.92644 6.42321C1.32659 6.58507 1.51265 7.059 1.63121 7.97863C1.67053 8.28339 1.6968 8.59605 1.74405 8.90021C1.7913 9.20422 1.9103 9.46373 1.95065 9.73623C1.98 9.76445 1.97325 9.75414 2.0026 9.7976C2.0227 9.82746 2.02167 9.82641 2.04119 9.86419C2.46613 10.6856 2.57736 10.7201 3.78264 11.1146C4.83077 11.4577 5.35652 11.66 6.44486 11.6437L6.75623 11.6157C6.76606 11.9161 6.58778 12.3167 6.59292 12.77C6.62505 15.5898 9.77648 17.1863 11.8956 15.297C13.5049 13.8624 13.2993 10.9893 11.2528 9.93213C10.2641 9.42132 9.82329 9.63051 8.9621 9.67516C9.03547 9.51449 10.7871 7.32149 11.0334 7.00375C11.1184 6.89415 11.3025 6.71721 11.2245 6.53624C11.0433 6.50802 10.9659 6.7087 10.8547 6.85533C10.7413 7.00495 10.6453 7.13918 10.5335 7.29327C10.0531 7.95564 9.16445 9.27484 8.54244 9.75922C8.74963 9.49807 8.94919 9.21078 9.16827 8.92947L10.7821 6.81442C10.8943 6.66003 11.0256 6.56715 11.0344 6.32332C10.948 6.26135 10.7366 6.12145 10.8057 6.00886C10.9793 5.8034 10.9782 6.13414 11.2336 6.14593C11.256 5.91584 10.9662 5.76622 10.7711 5.72725C10.5063 5.66917 10.4328 5.87776 10.2971 6.0217C10.1697 6.15668 10.0315 6.27972 9.90385 6.41918L9.33584 7.03929C9.25777 7.11902 9.18881 7.16486 9.11427 7.24609C8.19072 8.25248 8.34288 7.9643 7.0249 7.48305C5.65718 6.98374 4.75799 6.68466 3.31602 6.4371C2.71221 6.33347 2.51001 6.28211 1.92629 6.42336L1.92644 6.42321Z" fill="#051629"/>
<path fill-rule="evenodd" clip-rule="evenodd" d="M1.92676 6.42358C2.51047 6.28233 2.71267 6.33354 3.31649 6.43732C4.75846 6.68503 5.65765 6.98396 7.02537 7.48327C8.34335 7.96437 8.19118 8.25255 9.11474 7.24631C9.18928 7.16508 9.25824 7.11924 9.33631 7.03951L9.90432 6.4194C10.0321 6.27994 10.1702 6.1569 10.2976 6.02192C10.4333 5.87798 10.5068 5.66939 10.7715 5.72747C10.7125 5.64804 10.7055 5.67894 10.7755 5.54814C10.8188 5.46751 10.8547 5.42959 10.914 5.35164C11.0191 5.21308 11.0872 5.10677 11.2101 4.98567C11.5501 4.96895 11.5907 5.17575 11.8637 5.19098L11.9326 5.11976C11.6823 5.15962 11.5439 4.99239 11.3131 4.92102C11.3825 4.68286 11.8917 4.1186 12.0408 3.97137L12.6806 3.32558C12.768 3.2451 12.8239 3.22106 12.8845 3.124C12.7724 3.04517 12.7501 2.95558 12.6604 2.84792C11.8307 1.85139 10.9519 2.06401 9.90241 2.12284C8.57856 2.19705 7.21451 2.21646 5.88304 2.19959C4.84518 2.18645 3.98942 1.98816 3.15303 2.44357C2.4933 2.80268 2.00467 3.48281 1.95126 4.35601C1.9093 5.04346 2.00614 5.74838 1.92676 6.42373V6.42358Z" fill="#5DAD2C"/>
<path fill-rule="evenodd" clip-rule="evenodd" d="M6.44538 11.6438C5.35705 11.6601 4.83129 11.4576 3.78316 11.1147C2.57788 10.7202 2.46665 10.6857 2.04171 9.86429C2.02219 9.82651 2.02322 9.82756 2.00312 9.7977C1.97377 9.75425 1.98052 9.76455 1.95117 9.73633L1.98976 15.369C2.0577 15.4005 6.63262 15.4 6.94766 15.3506C6.91156 15.1831 6.64626 14.7877 6.55543 14.5798C6.16204 13.6804 5.93606 12.5167 6.44538 11.6438Z" fill="#D02B34"/>
<path fill-rule="evenodd" clip-rule="evenodd" d="M2.1144 7.14322L2.47684 9.32352C2.59511 10.0567 2.78014 10.5127 3.51118 10.7935C4.11323 11.0248 4.80905 11.2076 5.46965 11.3261C6.37428 11.4884 6.93701 11.2864 7.31338 10.7349C7.51162 10.4443 8.08052 9.32666 7.93716 8.85303C7.84838 8.55992 7.4475 8.51543 7.12644 8.41225C6.81331 8.31146 6.5037 8.21082 6.17032 8.1187C5.24984 7.86426 4.15329 7.52994 3.19937 7.34897C2.86496 7.28551 2.45718 7.15665 2.11426 7.14307L2.1144 7.14322Z" fill="#FCFCFC"/>
<path fill-rule="evenodd" clip-rule="evenodd" d="M7.2552 14.2339C7.37699 14.1813 7.28939 14.1539 7.45124 14.1451L7.51214 14.2644C7.41515 14.3772 7.40796 14.3068 7.33151 14.3969C7.44508 14.5397 7.37978 14.4756 7.55102 14.5313C7.64567 14.8377 7.62733 14.817 7.84347 15.0005L7.85462 14.9508C7.88573 14.7952 7.87487 14.659 8.23642 14.7018C8.21119 14.9466 8.18272 14.814 8.21397 15.0993L8.0508 15.1658C8.12505 15.2654 8.3205 15.3863 8.46665 15.4218C8.46797 15.1556 8.39681 14.9578 8.44083 14.6723C8.48573 14.3814 8.64919 14.3289 8.66474 14.1016C8.59593 13.9659 8.46049 13.9299 8.50392 13.7117C8.5409 13.5261 8.71199 13.5036 8.89497 13.5662C8.87179 13.7534 8.76966 13.6771 8.73899 13.8463C8.70451 14.0366 8.81706 14.0677 8.98125 14.0278C9.02204 13.9278 9.03554 13.7774 9.11082 13.6959C9.21265 13.5857 9.32285 13.6304 9.44963 13.536C9.49336 13.2135 9.39138 13.3755 9.55205 13.0798C9.58888 13.0119 9.60297 12.9607 9.61295 12.8711C9.62454 12.7676 9.62718 12.6749 9.57568 12.5972C9.32975 12.6995 9.60224 12.916 9.21104 12.9359C8.90143 12.4921 9.38712 12.4763 9.57758 12.3153C9.5861 12.1687 9.59196 11.9924 9.42601 12.0425C9.29028 12.0834 9.32373 12.2543 9.31009 12.397C9.12226 12.3582 9.03936 12.2728 9.11361 12.0394C9.23114 11.9349 9.28543 11.9506 9.46387 11.9535C9.47326 11.7246 9.57949 11.6712 9.49717 11.4529C9.38668 11.1598 9.47575 11.208 9.5814 10.9812C9.67428 10.7817 9.59343 10.647 9.59226 10.4428C9.59006 10.0949 9.39358 10.0868 9.64112 10.0159L9.72359 10.2406C9.93371 10.2351 9.85521 10.2552 9.95646 10.1323C10.0466 10.023 10.0749 10.0589 10.1234 9.94331C9.64787 9.79937 8.88059 10.0156 8.49585 10.2094C8.02615 10.4459 7.69585 10.7687 7.43525 11.1248C7.15939 11.5019 6.95293 11.9933 6.90157 12.5816C6.85843 13.0759 6.99123 13.9269 7.2555 14.2339H7.2552Z" fill="#FCFCFC"/>
<path fill-rule="evenodd" clip-rule="evenodd" d="M10.0117 9.02972C11.1097 9.09751 11.7872 9.43407 12.4648 10.13C12.6977 10.3691 13.0157 10.7319 13.1833 11.0198C13.2282 10.7854 13.1678 8.30211 13.164 7.84894L13.1404 5.45451C13.1388 5.22024 13.1891 4.82813 13.1052 4.64746C12.9841 4.72466 10.0302 8.90281 10.0119 9.02972H10.0117Z" fill="#04216D"/>
<path fill-rule="evenodd" clip-rule="evenodd" d="M7.26299 18.1208C7.08559 18.0687 6.15499 18.0487 5.95851 18.1041C5.88412 18.2334 5.88074 18.4311 5.93063 18.6081C6.41618 18.7989 6.75719 18.356 6.71596 19.0408C6.20958 19.4878 4.94604 19.357 5.1277 17.9935C5.25286 17.0544 6.13988 17.0344 6.46856 17.2968C6.62674 17.4229 6.66416 17.6106 6.76189 17.7877C6.95147 17.8085 7.27957 17.7601 7.27341 17.567C7.25859 17.1006 6.70466 16.5375 5.91434 16.5865C3.98419 16.7058 4.00326 19.7438 5.98419 19.839C6.47106 19.8625 6.82572 19.7115 7.16394 19.4947C7.38096 19.3555 7.32975 19.1565 7.32697 18.8568C7.32447 18.5919 7.34545 18.3229 7.26299 18.1211V18.1208Z" fill="#051629"/>
<path fill-rule="evenodd" clip-rule="evenodd" d="M13.22 18.768C13.0856 18.6544 12.863 18.5911 12.6386 18.5872C12.5138 19.0523 12.2857 19.4114 11.728 19.2546C10.9455 19.0346 10.8768 17.3406 11.6614 17.1217C11.972 17.0351 12.3336 17.1242 12.485 17.4575C12.5067 17.5051 12.5217 17.5504 12.5438 17.5974C12.6561 17.8358 12.8457 17.7919 13.1642 17.6562C13.2394 16.9846 12.3676 16.3952 11.6254 16.5249C10.0175 16.8057 10.1867 19.4734 11.6033 19.8234C12.6363 20.0786 13.2608 19.3084 13.2197 18.7682L13.22 18.768Z" fill="#051629"/>
<path fill-rule="evenodd" clip-rule="evenodd" d="M9.7908 18.587C9.72375 18.8174 9.68442 19.0231 9.52741 19.139C9.08075 19.4687 8.31068 19.2738 8.26432 18.2253C8.20841 16.962 9.13636 16.9657 9.46931 17.2351C9.81032 17.511 9.54664 17.9834 10.3196 17.6533C10.3645 17.2517 9.99843 16.8806 9.7911 16.741C8.83277 16.0952 7.37539 16.7809 7.67708 18.4887C7.82352 19.3174 8.31729 19.8968 9.25096 19.8698C9.70643 19.8566 10.014 19.6108 10.1865 19.3442C10.5017 18.8568 10.4429 18.6004 9.79095 18.587H9.7908Z" fill="#051629"/>
<path fill-rule="evenodd" clip-rule="evenodd" d="M2.05352 17.2332C2.33672 17.2985 2.66526 17.2323 2.96841 17.2619L2.98793 19.7232C3.14479 19.7789 3.52014 19.8561 3.58617 19.646C3.60231 19.5948 3.60422 19.5442 3.60657 19.4907C3.61141 19.3834 3.60568 19.2642 3.60304 19.156C3.59321 18.7504 3.55242 17.5087 3.62344 17.2544C3.96122 17.1009 4.42109 17.3896 4.51999 17.1059C4.56078 16.9891 4.53349 16.7831 4.49285 16.679C4.04149 16.5963 2.8296 16.6727 2.25102 16.6872C1.91221 16.6957 1.98822 16.9791 2.05337 17.2332H2.05352Z" fill="#051629"/>
<path fill-rule="evenodd" clip-rule="evenodd" d="M7.24156 8.2696C7.37524 7.7455 6.93796 7.65233 6.55044 7.50226C5.61691 7.14092 3.77142 6.55008 2.84082 6.5562C2.86767 6.69641 3.02013 6.95905 3.09453 7.06074C3.22204 7.23439 3.34163 7.27172 3.59739 7.31218C4.51008 7.45657 5.20091 7.65979 6.06959 7.92139C6.34589 8.00456 7.00502 8.27169 7.24141 8.26945L7.24156 8.2696Z" fill="#FCFCFC"/>
<path fill-rule="evenodd" clip-rule="evenodd" d="M12.8839 3.12469C12.8234 3.22174 12.7675 3.24593 12.6799 3.32626L12.0402 3.97205C11.8911 4.11928 11.3819 4.68354 11.3125 4.9217C11.5433 4.99307 11.6817 5.16031 11.932 5.12044C12.0673 4.97247 12.2098 4.78597 12.3443 4.61441C12.5342 4.37222 13.542 3.2522 13.6158 3.0127C13.5074 2.99956 13.284 2.94058 13.1951 2.94043C13.0559 2.94028 12.9992 3.06152 12.8839 3.12469Z" fill="#051629"/>
<path fill-rule="evenodd" clip-rule="evenodd" d="M12.6104 15.4927C12.8062 15.5039 13.0357 15.5497 13.2214 15.4861C13.2883 15.2404 13.256 14.8351 13.2183 14.5801C13.1365 14.6102 12.6418 15.3564 12.6104 15.4927Z" fill="#D02B34"/>
</svg>
