<svg width="24" height="24" viewBox="0 0 24 24" fill="none" xmlns="http://www.w3.org/2000/svg">
<path d="M2.25 2.25H8.25V0.75H0.75V8.25H2.25V2.25Z" fill="#787878"/>
<path d="M8.25 8.25V3.75H3.75V8.25H8.25ZM5.25 5.25H6.75V6.75H5.25V5.25ZM15.375 2.25H21.75V8.25H23.25V0.75H15.375V2.25Z" fill="#787878"/>
<path d="M20.25 8.25V3.75H15.75V8.25H20.25ZM17.25 5.25H18.75V6.75H17.25V5.25ZM8.25 21.75H2.25V15.75H0.75V23.25H8.25V21.75Z" fill="#787878"/>
<path d="M8.25 15.75H3.75V20.25H8.25V15.75ZM6.75 18.75H5.25V17.25H6.75V18.75ZM21.75 21.75H15.375V23.25H23.25V15.75H21.75V21.75Z" fill="#787878"/>
<path d="M12.75 14.25H18.75V17.25H20.25V12.75H12.75V14.25Z" fill="#787878"/>
<path d="M20.25 20.25V18.75H11.25V12.75H3.75V14.25H9.75V20.25H20.25ZM9.75 3.75H11.25V8.25H9.75V3.75Z" fill="#787878"/>
<path d="M3.75 11.25H14.25V3.75H12.75V9.75H3.75V11.25ZM15.75 9.75H20.25V11.25H15.75V9.75ZM15.75 15.75H17.25V17.25H15.75V15.75ZM12.75 15.75H14.25V17.25H12.75V15.75Z" fill="#787878"/>
</svg>
