<svg width="294" height="176" viewBox="0 0 294 176" fill="none" xmlns="http://www.w3.org/2000/svg">
<path fill-rule="evenodd" clip-rule="evenodd" d="M0 27.5381V175.486H100.432C104.104 175.486 107.688 174.156 110.242 172.876C111.877 172.057 112.727 171.537 114.153 170.578L120.41 164.146C123.237 160.153 125 155.073 125 149.567V0H25.378C21.3124 0 17.5753 1.22308 14.7509 2.60253C5.42446 7.15908 0 16.574 0 27.5381H0Z" fill="#322C2B"/>
<path fill-rule="evenodd" clip-rule="evenodd" d="M5.1424 170.571C33.9787 170.994 63.8224 170.581 92.872 170.581C99.0626 170.581 102.977 170.928 108.139 168.339C112.091 166.357 115.091 163.517 117.205 159.856C119.831 155.308 120.039 151.263 120.039 145.247V22.407C120.039 17.151 120.444 10.0392 119.987 5.01116C116.694 4.60144 41.293 4.93964 32.3981 4.93964C25.8996 4.93964 22.5577 4.5772 17.0786 7.09245C13.3791 8.7907 9.80926 12.2939 7.97524 15.5352C5.21998 20.4021 5.05512 23.8871 5.05512 30.2364V153.077C5.05512 157.965 4.57389 166.064 5.14361 170.571H5.1424Z" fill="#FCFCFC"/>
<path fill-rule="evenodd" clip-rule="evenodd" d="M15.9138 52.1476C10.9585 53.4616 12.4955 57.309 13.4749 64.7748C13.7998 67.2488 14.0168 69.7871 14.4071 72.2563C14.7974 74.7243 15.7805 76.831 16.1138 79.0432C16.3563 79.2723 16.3005 79.1887 16.5429 79.5414C16.709 79.7839 16.7005 79.7754 16.8617 80.0821C20.3722 86.7502 21.291 87.0302 31.2478 90.2328C39.9063 93.0183 44.2495 94.6608 53.2402 94.5287L55.8124 94.3008C55.8936 96.7397 54.4208 99.992 54.4633 103.672C54.7287 126.564 80.7625 139.524 98.2687 124.187C111.563 112.54 109.864 89.2158 92.9581 80.6336C84.7905 76.4868 81.1492 78.185 74.035 78.5474C74.641 77.2431 89.1107 59.44 91.1459 56.8605C91.8478 55.9708 93.3691 54.5343 92.7242 53.0652C91.2272 52.8361 90.5884 54.4653 89.6695 55.6556C88.7325 56.8702 87.9398 57.9599 87.0161 59.2109C83.0474 64.5881 75.7065 75.2976 70.5681 79.2299C72.2797 77.1098 73.9283 74.7776 75.7381 72.4939L89.0695 55.3235C89.9968 54.0701 91.0817 53.3161 91.1544 51.3366C90.4405 50.8336 88.6937 49.6978 89.2647 48.7838C90.6987 47.1159 90.6902 49.8008 92.7993 49.8966C92.9848 48.0286 90.5908 46.814 88.9786 46.4977C86.7918 46.0261 86.1845 47.7195 85.0633 48.8881C84.0111 49.9839 82.8693 50.9827 81.8147 52.1149L77.1223 57.149C76.4775 57.7963 75.9078 58.1684 75.292 58.8279C67.6626 66.9979 68.9196 64.6584 58.0319 60.7516C46.7332 56.6981 39.3051 54.2701 27.3931 52.2603C22.405 51.4191 20.7346 51.0021 15.9126 52.1488L15.9138 52.1476Z" fill="#051629"/>
<path fill-rule="evenodd" clip-rule="evenodd" d="M15.9136 52.1476C20.7356 51.0009 22.406 51.4167 27.394 52.2591C39.306 54.2701 46.7342 56.6969 58.0329 60.7504C68.9206 64.656 67.6636 66.9955 75.293 58.8267C75.9087 58.1673 76.4785 57.7951 77.1233 57.1478L81.8157 52.1137C82.8715 50.9815 84.0121 49.9827 85.0643 48.8869C86.1855 47.7184 86.7928 46.0249 88.9796 46.4965C88.4923 45.8516 88.4341 46.1025 89.0123 45.0407C89.3699 44.3861 89.6669 44.0782 90.1566 43.4455C91.0245 42.3206 91.587 41.4575 92.6028 40.4744C95.4114 40.3387 95.7471 42.0175 98.0018 42.1412L98.5715 41.563C96.5035 41.8866 95.3605 40.529 93.4537 39.9496C94.0271 38.0161 98.2333 33.4353 99.4649 32.2401L104.75 26.9975C105.472 26.3441 105.934 26.149 106.435 25.3611C105.509 24.7211 105.324 23.9938 104.584 23.1198C97.729 15.0297 90.4693 16.7559 81.7999 17.2335C70.8637 17.8359 59.5954 17.9935 48.5961 17.8565C40.0224 17.7499 32.9531 16.1401 26.0437 19.8372C20.5938 22.7525 16.5572 28.2739 16.116 35.3627C15.7693 40.9435 16.5694 46.6662 15.9136 52.1488V52.1476Z" fill="#5DAD2C"/>
<path fill-rule="evenodd" clip-rule="evenodd" d="M53.2416 94.5287C44.2509 94.6608 39.9077 93.0171 31.2492 90.2328C21.2924 87.0302 20.3736 86.7502 16.8631 80.082C16.7019 79.7754 16.7104 79.7838 16.5443 79.5414C16.3019 79.1887 16.3577 79.2723 16.1152 79.0432L16.434 124.77C16.9953 125.026 54.7883 125.022 57.3909 124.621C57.0927 123.261 54.9011 120.051 54.1507 118.364C50.9009 111.061 49.0341 101.615 53.2416 94.5287V94.5287Z" fill="#D02B34"/>
<path fill-rule="evenodd" clip-rule="evenodd" d="M17.469 57.9878L20.463 75.6879C21.4401 81.6397 22.9686 85.3416 29.0076 87.6217C33.9812 89.4994 39.7293 90.9831 45.1865 91.9455C52.6595 93.2632 57.3082 91.6231 60.4174 87.1453C62.055 84.7864 66.7546 75.7134 65.5703 71.8684C64.837 69.4889 61.5253 69.1276 58.8731 68.29C56.2863 67.4718 53.7286 66.6548 50.9746 65.9069C43.3706 63.8414 34.3121 61.1273 26.4318 59.6582C23.6692 59.143 20.3006 58.0969 17.4678 57.9866L17.469 57.9878Z" fill="#FCFCFC"/>
<path fill-rule="evenodd" clip-rule="evenodd" d="M59.9348 115.545C60.9409 115.119 60.2173 114.896 61.5543 114.824L62.0573 115.793C61.2561 116.709 61.1967 116.137 60.5652 116.869C61.5034 118.028 60.964 117.508 62.3786 117.96C63.1604 120.447 63.0089 120.279 64.7944 121.769L64.8865 121.365C65.1435 120.102 65.0538 118.996 68.0406 119.344C67.8321 121.331 67.597 120.255 67.8552 122.571L66.5072 123.11C67.1206 123.919 68.7352 124.901 69.9425 125.189C69.9534 123.028 69.3655 121.422 69.7292 119.104C70.1001 116.743 71.4504 116.316 71.5789 114.471C71.0104 113.369 69.8916 113.077 70.2504 111.306C70.5559 109.8 71.9693 109.617 73.4808 110.125C73.2893 111.645 72.4456 111.025 72.1923 112.399C71.9074 113.944 72.8372 114.196 74.1936 113.873C74.5306 113.06 74.6421 111.84 75.2639 111.178C76.1052 110.283 77.0155 110.646 78.0628 109.88C78.4241 107.261 77.5816 108.577 78.9089 106.176C79.2132 105.625 79.3296 105.209 79.412 104.482C79.5077 103.642 79.5296 102.889 79.1041 102.259C77.0725 103.089 79.3235 104.847 76.0918 105.008C73.5342 101.405 77.5465 101.277 79.1199 99.9702C79.1902 98.7798 79.2386 97.3482 77.8677 97.7555C76.7464 98.0877 77.0228 99.4744 76.9101 100.633C75.3585 100.318 74.6736 99.6247 75.287 97.7301C76.2579 96.8815 76.7064 97.0088 78.1804 97.0331C78.258 95.1748 79.1356 94.7409 78.4556 92.9687C77.5428 90.5892 78.2786 90.9807 79.1514 89.1394C79.9187 87.52 79.2508 86.4266 79.2411 84.7683C79.2229 81.944 77.5998 81.8785 79.6447 81.3027L80.326 83.1271C82.0618 83.0822 81.4133 83.2458 82.2497 82.2482C82.994 81.3609 83.2279 81.6518 83.6291 80.7136C79.7005 79.5451 73.362 81.3003 70.1837 82.8737C66.3036 84.7938 63.575 87.4145 61.4222 90.3055C59.1433 93.3663 57.4378 97.3555 57.0135 102.131C56.6571 106.145 57.7541 113.053 59.9373 115.545H59.9348Z" fill="#FCFCFC"/>
<path fill-rule="evenodd" clip-rule="evenodd" d="M82.707 73.3012C91.7777 73.8515 97.3743 76.5838 102.972 82.2337C104.896 84.1744 107.523 87.12 108.907 89.457C109.278 87.5539 108.78 67.3943 108.748 63.7154L108.553 44.277C108.54 42.3751 108.955 39.1919 108.262 37.7252C107.262 38.3519 82.8598 72.2709 82.7082 73.3012H82.707Z" fill="#04216D"/>
<path fill-rule="evenodd" clip-rule="evenodd" d="M59.9945 147.104C58.529 146.681 50.8414 146.519 49.2183 146.968C48.6037 148.018 48.5758 149.623 48.988 151.059C52.9991 152.609 55.8161 149.013 55.4755 154.572C51.2923 158.202 40.8543 157.14 42.355 146.07C43.389 138.447 50.7165 138.284 53.4318 140.414C54.7385 141.438 55.0476 142.962 55.8549 144.4C57.421 144.568 60.1315 144.176 60.0806 142.608C59.9581 138.821 55.3822 134.25 48.8534 134.648C32.9085 135.616 33.0661 160.279 49.4304 161.053C53.4524 161.243 56.3822 160.017 59.1763 158.257C60.9691 157.128 60.546 155.512 60.523 153.079C60.5024 150.929 60.6757 148.744 59.9945 147.107V147.104Z" fill="#051629"/>
<path fill-rule="evenodd" clip-rule="evenodd" d="M109.217 152.359C108.106 151.436 106.268 150.922 104.414 150.891C103.383 154.667 101.499 157.582 96.8915 156.309C90.427 154.523 89.8597 140.771 96.3411 138.994C98.9073 138.29 101.894 139.014 103.145 141.72C103.324 142.106 103.448 142.474 103.631 142.855C104.558 144.791 106.125 144.435 108.756 143.333C109.377 137.881 102.175 133.096 96.0442 134.148C82.7612 136.429 84.1588 158.085 95.8611 160.927C104.395 162.998 109.554 156.746 109.214 152.36L109.217 152.359Z" fill="#051629"/>
<path fill-rule="evenodd" clip-rule="evenodd" d="M80.8812 150.891C80.3272 152.761 80.0023 154.432 78.7053 155.372C75.0155 158.049 68.654 156.467 68.271 147.955C67.8091 137.699 75.4749 137.729 78.2253 139.916C81.0424 142.156 78.8641 145.991 85.2498 143.311C85.6208 140.051 82.5964 137.038 80.8836 135.905C72.9669 130.662 60.9276 136.229 63.4199 150.093C64.6296 156.821 68.7086 161.524 76.4216 161.305C80.1842 161.198 82.7249 159.203 84.1504 157.038C86.7541 153.081 86.2681 151 80.8824 150.891H80.8812Z" fill="#051629"/>
<path fill-rule="evenodd" clip-rule="evenodd" d="M16.9658 139.898C19.3053 140.428 22.0194 139.891 24.5237 140.131L24.6849 160.112C25.9807 160.564 29.0815 161.191 29.6269 159.485C29.7603 159.069 29.776 158.659 29.7954 158.225C29.8354 157.353 29.7882 156.386 29.7663 155.507C29.6851 152.215 29.3481 142.134 29.9348 140.07C32.7253 138.824 36.5242 141.167 37.3412 138.864C37.6782 137.916 37.4527 136.243 37.1169 135.398C33.3883 134.727 23.377 135.347 18.5974 135.465C15.7985 135.534 16.4264 137.835 16.9646 139.898H16.9658Z" fill="#051629"/>
<path fill-rule="evenodd" clip-rule="evenodd" d="M59.8283 67.1276C60.9326 62.8729 57.3203 62.1165 54.119 60.8982C46.4072 57.9648 31.1617 53.1682 23.4741 53.2179C23.6959 54.3561 24.9554 56.4883 25.57 57.3138C26.6233 58.7236 27.6113 59.0266 29.7241 59.3551C37.2638 60.5273 42.9707 62.1771 50.1467 64.3008C52.4292 64.976 57.8743 67.1445 59.8271 67.1264L59.8283 67.1276Z" fill="#FCFCFC"/>
<path fill-rule="evenodd" clip-rule="evenodd" d="M106.434 25.3611C105.934 26.149 105.473 26.3453 104.749 26.9975L99.4638 32.2401C98.2322 33.4353 94.026 38.0161 93.4526 39.9495C95.3594 40.5289 96.5025 41.8866 98.5704 41.5629C99.688 40.3617 100.865 38.8477 101.977 37.4549C103.545 35.4887 111.87 26.3962 112.48 24.4519C111.584 24.3453 109.739 23.8664 109.005 23.8652C107.854 23.864 107.387 24.8483 106.434 25.3611V25.3611Z" fill="#051629"/>
<path fill-rule="evenodd" clip-rule="evenodd" d="M104.177 125.772C105.795 125.863 107.691 126.235 109.224 125.719C109.777 123.724 109.51 120.434 109.199 118.364C108.524 118.609 104.436 124.666 104.177 125.772Z" fill="#D02B34"/>
<path d="M182.216 71.304V77.88H173.288V105H165.08V77.88H156.152V71.304H182.216ZM208.703 81.96C208.095 80.84 207.215 79.992 206.063 79.416C204.943 78.808 203.615 78.504 202.079 78.504C199.423 78.504 197.295 79.384 195.695 81.144C194.095 82.872 193.295 85.192 193.295 88.104C193.295 91.208 194.127 93.64 195.791 95.4C197.487 97.128 199.807 97.992 202.751 97.992C204.767 97.992 206.463 97.48 207.839 96.456C209.247 95.432 210.271 93.96 210.911 92.04H200.495V85.992H218.351V93.624C217.743 95.672 216.703 97.576 215.231 99.336C213.791 101.096 211.951 102.52 209.711 103.608C207.471 104.696 204.943 105.24 202.127 105.24C198.799 105.24 195.823 104.52 193.199 103.08C190.607 101.608 188.575 99.576 187.103 96.984C185.663 94.392 184.943 91.432 184.943 88.104C184.943 84.776 185.663 81.816 187.103 79.224C188.575 76.6 190.607 74.568 193.199 73.128C195.791 71.656 198.751 70.92 202.079 70.92C206.111 70.92 209.503 71.896 212.255 73.848C215.039 75.8 216.879 78.504 217.775 81.96H208.703ZM221.506 88.104C221.506 84.776 222.226 81.816 223.666 79.224C225.106 76.6 227.106 74.568 229.666 73.128C232.258 71.656 235.186 70.92 238.45 70.92C242.45 70.92 245.874 71.976 248.722 74.088C251.57 76.2 253.474 79.08 254.434 82.728H245.41C244.738 81.32 243.778 80.248 242.53 79.512C241.314 78.776 239.922 78.408 238.354 78.408C235.826 78.408 233.778 79.288 232.21 81.048C230.642 82.808 229.858 85.16 229.858 88.104C229.858 91.048 230.642 93.4 232.21 95.16C233.778 96.92 235.826 97.8 238.354 97.8C239.922 97.8 241.314 97.432 242.53 96.696C243.778 95.96 244.738 94.888 245.41 93.48H254.434C253.474 97.128 251.57 100.008 248.722 102.12C245.874 104.2 242.45 105.24 238.45 105.24C235.186 105.24 232.258 104.52 229.666 103.08C227.106 101.608 225.106 99.576 223.666 96.984C222.226 94.392 221.506 91.432 221.506 88.104ZM258.068 88.104C258.068 84.776 258.788 81.816 260.228 79.224C261.668 76.6 263.668 74.568 266.228 73.128C268.82 71.656 271.748 70.92 275.012 70.92C279.012 70.92 282.436 71.976 285.284 74.088C288.132 76.2 290.036 79.08 290.996 82.728H281.972C281.3 81.32 280.34 80.248 279.092 79.512C277.876 78.776 276.484 78.408 274.916 78.408C272.388 78.408 270.34 79.288 268.772 81.048C267.204 82.808 266.42 85.16 266.42 88.104C266.42 91.048 267.204 93.4 268.772 95.16C270.34 96.92 272.388 97.8 274.916 97.8C276.484 97.8 277.876 97.432 279.092 96.696C280.34 95.96 281.3 94.888 281.972 93.48H290.996C290.036 97.128 288.132 100.008 285.284 102.12C282.436 104.2 279.012 105.24 275.012 105.24C271.748 105.24 268.82 104.52 266.228 103.08C263.668 101.608 261.668 99.576 260.228 96.984C258.788 94.392 258.068 91.432 258.068 88.104Z" fill="black"/>
</svg>
