<svg width="167" height="151" viewBox="0 0 167 151" fill="none" xmlns="http://www.w3.org/2000/svg">
<path d="M106.716 14.2493L162.279 106.793C170.264 120.084 166.342 137.571 153.514 145.846C149.209 148.634 144.191 150.12 139.062 150.125H27.9289C12.8298 150.125 0.583008 137.439 0.583008 121.776C0.583008 116.477 2.01747 111.295 4.71226 106.793L60.283 14.2493C68.2596 0.957719 85.1248 -3.11349 97.952 5.16159C101.501 7.45009 104.502 10.5595 106.716 14.2493ZM83.4997 116.958C85.6988 116.958 87.8078 116.085 89.3628 114.53C90.9177 112.975 91.7913 110.866 91.7913 108.666C91.7913 106.467 90.9177 104.358 89.3628 102.803C87.8078 101.248 85.6988 100.375 83.4997 100.375C81.3006 100.375 79.1916 101.248 77.6366 102.803C76.0816 104.358 75.208 106.467 75.208 108.666C75.208 110.866 76.0816 112.975 77.6366 114.53C79.1916 116.085 81.3006 116.958 83.4997 116.958ZM83.4997 42.3331C81.3006 42.3331 79.1916 43.2067 77.6366 44.7617C76.0816 46.3167 75.208 48.4257 75.208 50.6248V83.7915C75.208 85.9905 76.0816 88.0996 77.6366 89.6545C79.1916 91.2095 81.3006 92.0831 83.4997 92.0831C85.6988 92.0831 87.8078 91.2095 89.3628 89.6545C90.9177 88.0996 91.7913 85.9905 91.7913 83.7915V50.6248C91.7913 48.4257 90.9177 46.3167 89.3628 44.7617C87.8078 43.2067 85.6988 42.3331 83.4997 42.3331Z" fill="black"/>
</svg>
